<svg id="svg" version="1.1" xmlns="http://www.w3.org/2000/svg" xmlns:xlink="http://www.w3.org/1999/xlink" width="400" height="400" viewBox="0, 0, 400,400"><g id="svgg"><path id="path0" d="M339.924 4.991 L 307.265 5.056 307.265 144.031 L 307.265 283.007 339.924 283.007 L 372.584 283.007 372.584 143.904 C 372.584 67.397,372.584 4.829,372.584 4.863 C 372.584 4.897,357.887 4.955,339.924 4.991 M344.767 299.650 C 344.904 299.871,344.363 299.929,342.658 299.879 C 341.397 299.841,340.366 299.896,340.366 300.000 C 340.366 300.104,340.196 300.190,339.987 300.190 C 339.779 300.190,339.607 300.047,339.604 299.874 C 339.602 299.654,339.530 299.669,339.371 299.921 C 339.172 300.236,339.083 300.236,338.695 299.921 C 338.449 299.721,338.326 299.688,338.421 299.847 C 338.537 300.040,338.259 300.169,337.588 300.233 C 337.034 300.286,336.531 300.212,336.471 300.070 C 336.404 299.911,336.272 299.938,336.130 300.140 C 335.876 300.500,335.293 300.461,335.001 300.063 C 334.884 299.905,334.814 299.924,334.811 300.115 C 334.809 300.282,334.381 300.501,333.860 300.601 C 332.344 300.890,331.914 300.889,331.716 300.593 C 331.597 300.415,331.529 300.455,331.526 300.704 C 331.524 300.918,331.293 301.110,331.012 301.131 C 330.715 301.154,330.569 301.059,330.664 300.906 C 330.753 300.761,330.529 300.838,330.164 301.076 C 329.769 301.335,329.201 301.466,328.757 301.401 C 328.347 301.341,328.062 301.373,328.123 301.472 C 328.184 301.571,328.059 301.720,327.844 301.803 C 327.589 301.901,327.516 301.851,327.635 301.659 C 327.734 301.498,327.549 301.553,327.223 301.781 C 326.808 302.072,326.536 302.119,326.319 301.939 C 326.107 301.763,325.956 301.765,325.845 301.946 C 325.755 302.092,325.830 302.220,326.012 302.230 C 326.194 302.241,325.944 302.395,325.458 302.572 C 324.689 302.853,324.551 302.842,324.402 302.490 C 324.253 302.138,324.228 302.144,324.212 302.533 C 324.201 302.823,323.926 303.035,323.437 303.133 C 323.020 303.217,322.677 303.413,322.675 303.569 C 322.672 303.726,322.560 303.683,322.426 303.474 C 322.262 303.222,322.180 303.201,322.177 303.411 C 322.175 303.585,322.003 303.727,321.794 303.727 C 321.586 303.727,321.415 303.841,321.415 303.980 C 321.415 304.119,321.238 304.232,321.021 304.232 C 320.788 304.232,320.701 304.114,320.807 303.941 C 320.920 303.759,320.877 303.718,320.692 303.832 C 320.529 303.932,320.461 304.121,320.541 304.250 C 320.621 304.379,320.566 304.499,320.419 304.517 C 319.924 304.575,319.775 304.631,318.951 305.071 C 318.500 305.312,318.130 305.424,318.130 305.320 C 318.130 305.216,317.949 305.389,317.728 305.704 C 317.406 306.164,317.255 306.218,316.965 305.978 C 316.671 305.734,316.632 305.755,316.762 306.092 C 316.854 306.332,316.795 306.507,316.623 306.507 C 316.459 306.507,316.151 306.681,315.937 306.894 C 315.631 307.201,315.473 307.218,315.183 306.978 C 314.982 306.811,314.837 306.778,314.861 306.906 C 314.988 307.574,314.819 307.796,314.308 307.634 C 313.948 307.519,313.828 307.555,313.943 307.742 C 314.041 307.900,313.837 308.147,313.470 308.315 C 313.114 308.477,312.824 308.724,312.824 308.863 C 312.824 309.003,312.749 309.043,312.657 308.951 C 312.565 308.859,312.366 309.029,312.215 309.329 C 312.063 309.630,311.585 310.055,311.151 310.275 C 310.717 310.496,310.258 310.903,310.131 311.181 C 310.004 311.459,309.761 311.658,309.593 311.623 C 309.424 311.589,309.315 311.696,309.349 311.861 C 309.384 312.027,309.185 312.204,308.907 312.255 C 307.844 312.451,307.697 312.558,307.997 312.920 C 308.214 313.181,308.176 313.345,307.836 313.611 C 307.423 313.936,307.418 313.925,307.770 313.455 C 308.122 312.987,308.117 312.975,307.707 313.297 C 307.464 313.488,307.265 313.800,307.265 313.992 C 307.265 314.183,307.107 314.340,306.914 314.340 C 306.721 314.340,306.346 314.539,306.081 314.782 C 305.815 315.025,305.759 315.114,305.955 314.980 C 306.231 314.791,306.289 314.848,306.210 315.232 C 306.153 315.512,305.920 315.714,305.678 315.695 C 305.442 315.676,305.308 315.757,305.381 315.875 C 305.455 315.993,305.292 316.312,305.021 316.584 C 304.749 316.855,304.603 317.162,304.696 317.265 C 304.788 317.368,304.671 317.383,304.435 317.299 C 304.141 317.194,304.047 317.252,304.136 317.486 C 304.208 317.673,304.144 317.903,303.993 317.996 C 303.842 318.089,303.786 318.274,303.868 318.407 C 303.950 318.539,303.872 318.617,303.694 318.579 C 303.516 318.540,303.366 318.655,303.360 318.834 C 303.353 319.013,303.178 319.267,302.969 319.399 C 302.761 319.531,302.693 319.640,302.819 319.642 C 302.944 319.645,302.859 319.854,302.629 320.109 C 302.398 320.363,302.286 320.648,302.379 320.741 C 302.472 320.834,302.409 320.910,302.238 320.910 C 302.068 320.910,301.999 321.023,302.085 321.162 C 302.171 321.301,302.120 321.415,301.973 321.415 C 301.826 321.415,301.706 321.537,301.706 321.686 C 301.706 322.090,301.037 322.681,300.811 322.477 C 300.703 322.379,300.684 322.495,300.770 322.734 C 300.855 322.972,300.815 323.236,300.680 323.320 C 300.545 323.403,300.507 323.590,300.597 323.735 C 300.686 323.880,300.611 324.090,300.430 324.202 C 300.249 324.314,300.060 324.671,300.011 324.995 C 299.962 325.319,299.811 325.622,299.675 325.669 C 299.539 325.716,299.493 325.858,299.571 325.985 C 299.650 326.112,299.604 326.216,299.470 326.216 C 299.336 326.216,299.282 326.472,299.351 326.785 C 299.454 327.257,299.425 327.289,299.179 326.974 C 298.932 326.659,298.903 326.691,299.007 327.164 C 299.092 327.554,299.014 327.732,298.756 327.732 C 298.473 327.732,298.420 327.913,298.542 328.466 C 298.635 328.892,298.589 329.271,298.431 329.368 C 298.282 329.460,298.224 329.640,298.303 329.768 C 298.382 329.896,298.280 329.936,298.075 329.858 C 297.797 329.751,297.721 329.880,297.774 330.366 C 297.814 330.724,297.761 331.017,297.657 331.017 C 297.554 331.017,297.408 331.251,297.333 331.537 C 297.219 331.972,297.258 332.006,297.570 331.747 C 297.896 331.476,297.902 331.530,297.617 332.175 C 297.437 332.580,297.118 333.051,296.908 333.220 C 296.643 333.433,296.623 333.530,296.841 333.536 C 297.015 333.540,297.157 333.664,297.157 333.812 C 297.157 333.959,297.044 334.009,296.905 333.923 C 296.766 333.837,296.652 333.944,296.652 334.161 C 296.652 334.377,296.755 334.555,296.881 334.555 C 297.007 334.555,297.051 334.781,296.979 335.057 C 296.903 335.347,296.726 335.487,296.560 335.388 C 296.402 335.293,296.429 335.408,296.620 335.643 C 296.810 335.878,296.866 336.071,296.744 336.071 C 296.333 336.071,295.873 337.039,296.191 337.235 C 296.379 337.351,296.407 337.298,296.273 337.081 C 296.129 336.849,296.166 336.811,296.398 336.955 C 296.656 337.114,296.626 337.233,296.263 337.499 C 295.971 337.712,295.921 337.840,296.129 337.840 C 296.397 337.840,296.394 337.920,296.114 338.260 C 295.833 338.600,295.830 338.701,296.097 338.791 C 296.340 338.873,296.308 338.998,295.970 339.274 C 295.720 339.478,295.657 339.574,295.831 339.486 C 296.004 339.398,296.147 339.446,296.147 339.593 C 296.147 339.741,296.019 339.861,295.863 339.861 C 295.663 339.861,295.670 339.970,295.885 340.229 C 296.053 340.431,296.105 340.735,296.000 340.905 C 295.895 341.074,295.795 341.505,295.778 341.863 C 295.760 342.221,295.657 342.770,295.550 343.083 C 295.419 343.463,295.454 343.651,295.655 343.651 C 295.869 343.651,295.856 343.774,295.609 344.079 C 295.310 344.448,295.314 344.476,295.641 344.283 C 295.944 344.104,295.964 344.133,295.738 344.424 C 295.583 344.624,295.497 345.272,295.548 345.862 C 295.611 346.600,295.542 346.937,295.325 346.940 C 295.081 346.943,295.083 346.991,295.335 347.151 C 295.581 347.306,295.596 347.527,295.398 348.048 C 295.072 348.905,295.066 349.206,295.384 348.705 C 295.551 348.442,295.608 348.732,295.570 349.652 C 295.540 350.382,295.401 350.981,295.262 350.983 C 295.113 350.985,295.122 351.063,295.284 351.173 C 295.711 351.461,295.904 352.558,295.593 352.932 C 295.389 353.178,295.391 353.436,295.599 353.893 C 295.817 354.372,295.811 354.518,295.573 354.521 C 295.379 354.523,295.358 354.595,295.515 354.710 C 295.654 354.812,295.783 355.066,295.803 355.275 C 295.822 355.483,295.927 355.871,296.035 356.137 C 296.169 356.466,296.143 356.566,295.952 356.448 C 295.780 356.342,295.686 356.465,295.709 356.768 C 295.729 357.039,295.850 357.241,295.978 357.216 C 296.105 357.190,296.267 357.328,296.337 357.521 C 296.415 357.736,296.354 357.804,296.179 357.696 C 296.022 357.599,295.894 357.633,295.894 357.772 C 295.894 357.911,296.008 358.095,296.147 358.181 C 296.286 358.267,296.399 358.451,296.399 358.590 C 296.399 358.728,296.287 358.773,296.149 358.688 C 295.913 358.541,296.035 359.109,296.367 359.697 C 296.446 359.836,296.479 360.191,296.441 360.486 C 296.403 360.781,296.559 361.211,296.789 361.440 C 297.019 361.670,297.143 362.022,297.067 362.222 C 296.990 362.422,297.028 362.649,297.153 362.726 C 297.277 362.803,297.336 363.091,297.283 363.366 C 297.230 363.641,297.322 363.868,297.488 363.870 C 297.694 363.873,297.682 363.941,297.452 364.087 C 297.181 364.259,297.193 364.331,297.515 364.455 C 297.735 364.539,297.915 364.732,297.915 364.884 C 297.915 365.035,297.802 365.089,297.663 365.003 C 297.524 364.917,297.410 364.967,297.410 365.115 C 297.410 365.262,297.593 365.382,297.816 365.382 C 298.069 365.382,298.169 365.522,298.080 365.753 C 298.001 365.957,298.048 366.192,298.183 366.276 C 298.318 366.359,298.368 366.526,298.294 366.646 C 298.220 366.765,298.276 366.935,298.417 367.023 C 298.590 367.129,298.592 367.337,298.422 367.655 C 298.222 368.028,298.267 368.159,298.639 368.277 C 298.954 368.377,299.102 368.654,299.089 369.115 C 299.076 369.553,299.187 369.779,299.395 369.735 C 299.575 369.697,299.655 369.774,299.572 369.907 C 299.490 370.040,299.541 370.221,299.684 370.310 C 299.828 370.398,299.880 370.577,299.800 370.706 C 299.720 370.835,299.771 370.941,299.914 370.941 C 300.057 370.941,300.101 371.130,300.012 371.362 C 299.895 371.667,299.943 371.726,300.186 371.575 C 300.415 371.433,300.460 371.466,300.328 371.679 C 300.215 371.862,300.380 372.257,300.732 372.643 C 301.059 373.003,301.184 373.215,301.011 373.115 C 300.812 373.000,300.695 373.088,300.695 373.354 C 300.695 373.607,300.833 373.722,301.042 373.641 C 301.488 373.470,302.025 374.564,301.669 374.920 C 301.504 375.085,301.558 375.223,301.828 375.327 C 302.096 375.430,302.176 375.384,302.059 375.195 C 301.946 375.013,301.993 374.976,302.184 375.094 C 302.419 375.239,302.413 375.374,302.160 375.686 C 301.882 376.028,301.894 376.066,302.243 375.936 C 302.525 375.830,302.644 375.915,302.622 376.204 C 302.604 376.437,302.732 376.598,302.906 376.563 C 303.080 376.529,303.222 376.605,303.222 376.732 C 303.222 376.859,303.080 377.021,302.906 377.091 C 302.732 377.161,302.819 377.227,303.098 377.238 C 303.377 377.249,303.755 377.498,303.938 377.790 C 304.120 378.083,304.158 378.253,304.021 378.168 C 303.884 378.083,303.810 378.214,303.856 378.457 C 303.903 378.701,303.952 378.958,303.964 379.027 C 303.977 379.097,304.098 378.983,304.232 378.774 C 304.440 378.453,304.478 378.465,304.481 378.853 C 304.484 379.151,304.595 379.244,304.801 379.120 C 305.016 378.991,305.006 379.067,304.770 379.358 C 304.579 379.593,304.522 379.798,304.644 379.814 C 304.765 379.830,305.035 379.859,305.243 379.878 C 305.452 379.896,305.606 380.111,305.587 380.354 C 305.568 380.597,305.722 380.796,305.930 380.796 C 306.174 380.796,306.253 380.941,306.152 381.203 C 306.043 381.486,306.105 381.568,306.354 381.473 C 306.821 381.293,307.621 382.183,307.433 382.674 C 307.352 382.883,307.396 383.121,307.528 383.203 C 307.661 383.285,307.777 383.204,307.786 383.022 C 307.795 382.840,307.906 382.949,308.032 383.263 C 308.158 383.578,308.525 383.936,308.848 384.058 C 309.433 384.281,310.273 385.092,309.918 385.092 C 309.814 385.092,309.871 385.262,310.044 385.471 C 310.488 386.005,310.939 385.945,310.517 385.407 C 310.204 385.007,310.212 384.998,310.610 385.310 C 310.852 385.499,310.996 385.740,310.932 385.845 C 310.759 386.124,311.691 386.894,312.097 386.808 C 312.315 386.761,312.414 386.911,312.363 387.211 C 312.301 387.569,312.387 387.646,312.710 387.522 C 313.263 387.310,313.829 387.781,313.852 388.471 C 313.870 388.995,313.875 388.996,314.087 388.503 C 314.287 388.037,314.306 388.034,314.322 388.467 C 314.333 388.757,314.472 388.885,314.687 388.803 C 314.901 388.721,315.023 388.829,315.003 389.082 C 314.986 389.309,315.184 389.538,315.444 389.591 C 315.735 389.651,315.851 389.584,315.746 389.414 C 315.643 389.247,315.723 389.196,315.953 389.285 C 316.160 389.364,316.272 389.579,316.202 389.762 C 316.044 390.172,316.608 390.563,316.833 390.199 C 316.942 390.024,317.208 390.059,317.626 390.304 L 318.256 390.672 317.625 390.506 C 317.144 390.381,317.061 390.413,317.276 390.640 C 317.431 390.804,317.716 390.962,317.908 390.991 C 318.099 391.020,318.399 391.133,318.572 391.241 C 318.746 391.350,319.001 391.369,319.138 391.284 C 319.276 391.199,319.326 391.290,319.250 391.488 C 319.151 391.747,319.310 391.843,319.822 391.834 C 320.734 391.818,321.712 392.144,321.548 392.409 C 321.478 392.522,321.647 392.674,321.924 392.746 C 322.200 392.819,322.364 392.776,322.287 392.651 C 322.210 392.527,322.323 392.493,322.538 392.575 C 322.752 392.658,322.877 392.807,322.815 392.908 C 322.641 393.191,324.672 394.002,325.205 393.862 C 325.493 393.787,325.739 393.898,325.834 394.146 C 325.953 394.454,326.038 394.476,326.187 394.236 C 326.447 393.815,327.226 394.130,327.231 394.657 C 327.233 394.896,327.314 394.965,327.420 394.820 C 327.661 394.492,328.588 394.330,328.391 394.650 C 328.308 394.784,328.420 394.962,328.639 395.046 C 329.177 395.253,329.303 395.238,329.148 394.988 C 329.076 394.873,329.173 394.778,329.362 394.778 C 329.551 394.778,329.647 394.929,329.576 395.115 C 329.428 395.501,329.718 395.547,330.237 395.218 C 330.468 395.071,330.719 395.117,330.950 395.348 C 331.356 395.755,331.884 395.833,331.649 395.452 C 331.563 395.313,331.666 395.199,331.879 395.199 C 332.096 395.199,332.208 395.346,332.135 395.536 C 332.062 395.727,332.175 395.873,332.396 395.873 C 332.610 395.873,332.786 395.785,332.786 395.678 C 332.786 395.571,333.013 395.500,333.291 395.521 C 333.569 395.542,333.797 395.654,333.797 395.770 C 333.797 395.885,334.195 395.905,334.681 395.814 C 335.210 395.715,335.565 395.749,335.565 395.899 C 335.565 396.223,336.798 396.464,336.977 396.175 C 337.051 396.054,337.346 396.081,337.633 396.234 C 338.010 396.436,338.106 396.436,337.981 396.235 C 337.887 396.082,337.930 395.957,338.077 395.957 C 338.224 395.957,338.345 396.059,338.345 396.183 C 338.345 396.524,339.155 396.764,339.418 396.501 C 339.558 396.361,340.009 396.380,340.558 396.548 C 341.253 396.762,341.490 396.755,341.569 396.518 C 341.702 396.121,344.915 396.087,344.915 396.483 C 344.915 396.662,345.374 396.710,346.241 396.621 C 346.971 396.546,347.774 396.480,348.025 396.474 C 348.276 396.468,348.412 396.349,348.326 396.210 C 348.240 396.071,348.290 395.957,348.437 395.957 C 348.585 395.957,348.705 396.071,348.705 396.210 C 348.705 396.349,348.825 396.462,348.973 396.462 C 349.120 396.462,349.170 396.349,349.084 396.210 C 348.998 396.071,349.048 395.957,349.195 395.957 C 349.343 395.957,349.463 396.054,349.463 396.173 C 349.463 396.292,349.804 396.378,350.221 396.363 C 350.643 396.348,350.978 396.197,350.979 396.020 C 350.979 395.638,351.352 395.616,351.993 395.959 C 352.360 396.155,352.527 396.112,352.727 395.769 C 352.930 395.420,352.988 395.406,352.997 395.704 C 353.006 396.013,353.049 396.020,353.225 395.741 C 353.400 395.466,353.554 395.459,354.018 395.708 C 354.516 395.974,354.572 395.961,354.437 395.607 C 354.334 395.341,354.414 395.199,354.666 395.199 C 354.878 395.199,354.992 395.296,354.918 395.415 C 354.845 395.534,355.064 395.578,355.406 395.513 C 355.747 395.447,355.975 395.310,355.911 395.207 C 355.848 395.104,356.093 395.076,356.457 395.146 C 356.913 395.233,357.063 395.182,356.940 394.983 C 356.834 394.811,356.927 394.694,357.170 394.694 C 357.395 394.694,357.515 394.797,357.436 394.924 C 357.160 395.370,358.991 394.804,359.514 394.281 C 359.704 394.091,359.993 393.937,360.157 393.939 C 360.332 393.942,360.300 394.041,360.079 394.181 C 359.784 394.367,359.827 394.409,360.275 394.376 C 360.589 394.352,360.801 394.214,360.746 394.070 C 360.689 393.924,360.993 393.808,361.434 393.809 C 361.892 393.809,362.201 393.687,362.169 393.519 C 362.136 393.345,362.318 393.283,362.624 393.363 C 363.179 393.508,365.185 392.714,365.004 392.421 C 364.943 392.322,365.181 392.109,365.533 391.949 C 365.884 391.789,366.113 391.753,366.041 391.870 C 365.969 391.987,366.080 392.083,366.289 392.083 C 366.497 392.083,366.616 391.949,366.553 391.785 C 366.480 391.594,366.643 391.527,367.012 391.597 C 367.444 391.680,367.622 391.566,367.734 391.137 C 367.867 390.631,367.932 390.607,368.323 390.925 C 368.710 391.241,368.743 391.232,368.601 390.853 C 368.480 390.531,368.542 390.463,368.848 390.580 C 369.119 390.684,369.194 390.638,369.073 390.441 C 368.972 390.278,369.010 390.145,369.158 390.145 C 369.305 390.145,369.482 390.145,369.551 390.145 C 369.621 390.145,369.913 389.910,370.200 389.623 C 370.598 389.225,370.803 389.168,371.062 389.383 C 371.469 389.720,371.827 389.307,371.551 388.819 C 371.412 388.574,371.445 388.570,371.697 388.802 C 372.066 389.144,372.415 388.895,372.938 387.917 C 373.153 387.516,373.390 387.387,373.721 387.492 C 374.055 387.598,374.279 387.471,374.477 387.062 C 374.754 386.493,374.751 386.492,374.337 386.987 C 374.105 387.265,373.964 387.330,374.023 387.131 C 374.082 386.933,374.349 386.648,374.616 386.499 C 374.884 386.351,375.249 386.036,375.427 385.800 C 375.841 385.254,377.419 384.122,377.142 384.571 C 377.027 384.756,377.291 384.643,377.728 384.320 C 378.448 383.788,378.638 383.503,378.459 383.225 C 378.424 383.171,378.628 382.915,378.913 382.656 C 379.197 382.398,379.254 382.296,379.039 382.431 C 378.824 382.566,378.924 382.367,379.261 381.989 C 379.874 381.300,380.205 381.080,379.912 381.554 C 379.826 381.693,379.876 381.807,380.023 381.807 C 380.268 381.807,380.380 381.466,380.227 381.186 C 380.193 381.122,380.392 380.887,380.670 380.662 C 380.948 380.437,381.004 380.340,380.796 380.447 C 380.466 380.615,380.463 380.583,380.774 380.201 C 381.054 379.855,381.175 379.831,381.338 380.089 C 381.492 380.331,381.547 380.297,381.550 379.960 C 381.553 379.662,381.664 379.569,381.870 379.692 C 382.067 379.811,382.047 379.698,381.815 379.392 C 381.611 379.122,381.544 378.985,381.665 379.088 C 381.910 379.295,382.565 378.849,382.565 378.476 C 382.565 378.346,382.423 378.325,382.249 378.429 C 382.034 378.558,382.044 378.482,382.280 378.191 C 382.685 377.692,382.926 377.623,382.670 378.080 C 382.573 378.253,382.686 378.215,382.921 377.995 C 383.156 377.774,383.366 377.354,383.388 377.060 C 383.421 376.624,383.496 376.582,383.795 376.829 C 384.104 377.084,384.142 377.025,384.035 376.460 C 383.933 375.926,383.989 375.817,384.310 375.929 C 384.625 376.039,384.648 375.999,384.416 375.749 C 384.254 375.572,384.188 375.251,384.271 375.035 C 384.398 374.705,384.453 374.721,384.613 375.129 C 384.785 375.570,384.805 375.560,384.821 375.032 C 384.833 374.658,384.944 374.514,385.131 374.629 C 385.300 374.734,385.354 374.699,385.260 374.547 C 385.170 374.402,385.268 374.142,385.477 373.969 C 385.765 373.729,385.787 373.571,385.569 373.308 C 385.341 373.033,385.404 372.959,385.882 372.945 C 386.412 372.929,386.425 372.905,386.000 372.738 C 385.543 372.559,385.549 372.521,386.127 371.961 C 386.461 371.637,386.563 371.465,386.355 371.579 C 386.100 371.718,386.129 371.611,386.443 371.253 C 386.707 370.952,386.827 370.587,386.720 370.413 C 386.590 370.202,386.635 370.171,386.864 370.312 C 387.112 370.465,387.154 370.402,387.027 370.070 C 386.899 369.737,386.953 369.659,387.237 369.768 C 387.447 369.849,387.618 369.805,387.618 369.670 C 387.618 369.535,387.505 369.425,387.366 369.425 C 387.227 369.425,387.113 369.292,387.113 369.130 C 387.113 368.968,387.188 368.910,387.279 369.002 C 387.658 369.381,388.078 368.599,387.975 367.706 C 387.907 367.121,387.949 366.898,388.087 367.109 C 388.266 367.385,388.332 367.379,388.448 367.077 C 388.526 366.873,388.456 366.563,388.294 366.387 C 388.083 366.159,388.081 366.113,388.287 366.228 C 388.446 366.317,388.645 366.211,388.729 365.992 C 388.951 365.414,388.920 365.330,388.566 365.537 C 388.392 365.639,388.443 365.501,388.679 365.231 C 388.914 364.962,389.074 364.516,389.033 364.240 C 388.993 363.965,389.141 363.600,389.363 363.429 C 389.719 363.154,389.722 363.088,389.387 362.864 C 389.059 362.645,389.066 362.610,389.435 362.607 C 389.704 362.604,389.847 362.417,389.823 362.097 C 389.802 361.819,389.687 361.592,389.568 361.592 C 389.449 361.592,389.530 361.413,389.748 361.195 C 390.204 360.739,390.286 360.212,389.860 360.475 C 389.685 360.583,389.624 360.515,389.702 360.300 C 389.772 360.107,389.938 359.972,390.072 359.999 C 390.205 360.026,390.314 359.888,390.314 359.694 C 390.314 359.499,390.238 359.387,390.145 359.444 C 390.053 359.501,389.977 359.388,389.977 359.191 C 389.977 358.995,390.091 358.905,390.230 358.991 C 390.376 359.081,390.422 358.986,390.338 358.768 C 390.258 358.559,390.289 358.230,390.408 358.038 C 390.541 357.823,390.507 357.613,390.321 357.492 C 390.092 357.344,390.090 357.250,390.314 357.105 C 390.476 356.999,390.584 356.552,390.553 356.110 C 390.523 355.668,390.589 355.363,390.700 355.432 C 390.812 355.501,390.903 355.437,390.903 355.290 C 390.903 355.143,390.761 355.020,390.587 355.018 C 390.366 355.016,390.355 354.959,390.553 354.829 C 390.968 354.555,391.250 353.506,390.908 353.506 C 390.717 353.506,390.703 353.368,390.866 353.077 C 391.011 352.817,391.016 352.413,390.879 352.052 C 390.731 351.664,390.740 351.510,390.904 351.611 C 391.043 351.697,391.156 351.647,391.156 351.499 C 391.156 351.352,391.021 351.232,390.855 351.232 C 390.690 351.232,390.775 351.053,391.045 350.834 C 391.314 350.615,391.400 350.504,391.234 350.587 C 391.047 350.681,390.948 350.545,390.972 350.227 C 390.994 349.946,391.107 349.716,391.225 349.716 C 391.342 349.716,391.361 349.590,391.266 349.436 C 390.968 348.954,390.832 347.368,391.104 347.536 C 391.267 347.637,391.275 347.337,391.125 346.670 C 390.844 345.421,390.830 345.326,390.897 345.167 C 391.102 344.682,391.067 342.919,390.854 343.050 C 390.699 343.146,390.706 343.009,390.873 342.698 C 391.082 342.306,391.059 342.117,390.772 341.878 C 390.394 341.565,390.237 340.995,390.587 341.212 C 390.692 341.276,390.793 341.055,390.813 340.721 C 390.833 340.387,390.758 340.114,390.646 340.114 C 390.534 340.114,390.475 339.915,390.514 339.672 C 390.554 339.428,390.458 339.065,390.302 338.865 C 390.086 338.586,390.093 338.545,390.335 338.690 C 390.668 338.890,390.775 338.554,390.475 338.253 C 390.268 338.047,390.108 337.390,390.111 336.766 C 390.113 336.522,390.003 336.323,389.868 336.323 C 389.716 336.323,389.709 336.155,389.850 335.881 C 390.100 335.395,389.964 334.733,389.654 334.925 C 389.546 334.992,389.489 334.765,389.527 334.421 C 389.565 334.078,389.478 333.797,389.334 333.797 C 389.170 333.797,389.183 333.663,389.369 333.440 C 389.582 333.183,389.587 333.035,389.386 332.912 C 389.233 332.817,389.152 332.608,389.207 332.447 C 389.261 332.286,389.125 332.016,388.904 331.846 C 388.639 331.643,388.610 331.536,388.819 331.530 C 388.992 331.526,389.135 331.402,389.135 331.255 C 389.135 331.108,389.034 331.050,388.911 331.126 C 388.713 331.248,388.493 330.816,388.247 329.817 C 388.204 329.643,388.294 329.501,388.447 329.501 C 388.600 329.501,388.505 329.334,388.235 329.130 C 387.959 328.921,387.883 328.755,388.061 328.751 C 388.234 328.747,388.377 328.633,388.377 328.498 C 388.377 328.364,388.187 328.326,387.956 328.415 C 387.673 328.523,387.595 328.479,387.718 328.280 C 387.822 328.113,387.758 327.983,387.570 327.981 C 387.330 327.978,387.343 327.910,387.618 327.732 C 387.955 327.514,387.955 327.486,387.618 327.479 C 387.282 327.473,387.282 327.445,387.618 327.227 C 387.894 327.049,387.907 326.981,387.667 326.978 C 387.485 326.976,387.405 326.862,387.490 326.724 C 387.582 326.577,387.470 326.542,387.218 326.638 C 386.920 326.753,386.828 326.695,386.915 326.446 C 386.982 326.250,386.824 325.814,386.563 325.478 C 386.237 325.059,386.170 324.784,386.348 324.606 C 386.681 324.273,386.687 323.863,386.355 324.068 C 386.117 324.216,386.069 324.098,385.995 323.184 C 385.978 322.975,385.779 322.836,385.553 322.873 C 385.240 322.925,385.154 322.761,385.193 322.189 C 385.237 321.552,385.188 321.482,384.872 321.741 C 384.558 321.998,384.522 321.956,384.645 321.478 C 384.726 321.166,384.687 320.845,384.558 320.766 C 384.430 320.687,384.406 320.488,384.504 320.324 C 384.606 320.154,384.499 320.175,384.256 320.372 C 383.870 320.685,383.828 320.635,383.824 319.867 C 383.822 319.293,383.749 319.127,383.603 319.357 C 383.452 319.596,383.334 319.615,383.213 319.421 C 383.118 319.267,383.111 319.027,383.196 318.888 C 383.282 318.749,383.232 318.636,383.085 318.636 C 382.938 318.636,382.817 318.469,382.817 318.265 C 382.817 318.062,382.590 317.774,382.312 317.625 C 382.022 317.469,381.807 317.096,381.807 316.746 C 381.807 316.412,381.681 316.061,381.527 315.966 C 381.339 315.849,381.303 315.968,381.418 316.330 C 381.683 317.165,381.308 316.961,381.011 316.109 C 380.865 315.692,380.587 315.351,380.392 315.351 C 380.197 315.351,380.038 315.237,380.038 315.098 C 380.038 314.959,380.158 314.845,380.306 314.845 C 380.453 314.845,380.499 314.726,380.409 314.580 C 380.298 314.400,380.130 314.411,379.883 314.616 C 379.596 314.854,379.547 314.844,379.648 314.565 C 379.724 314.357,379.363 313.909,378.763 313.465 C 378.206 313.054,377.526 312.336,377.252 311.871 C 376.977 311.406,376.636 311.097,376.494 311.185 C 376.352 311.273,376.266 311.195,376.305 311.011 C 376.343 310.826,376.159 310.675,375.895 310.675 C 375.632 310.674,375.291 310.451,375.137 310.180 C 374.712 309.428,374.226 308.950,374.226 309.283 C 374.226 309.440,374.112 309.498,373.973 309.413 C 373.834 309.327,373.719 309.007,373.717 308.703 C 373.714 308.272,373.662 308.230,373.483 308.512 C 373.185 308.983,372.363 308.381,372.569 307.843 C 372.649 307.635,372.594 307.560,372.433 307.659 C 372.042 307.900,370.403 306.956,370.550 306.573 C 370.624 306.381,370.469 306.254,370.160 306.254 C 369.824 306.254,369.709 306.146,369.826 305.938 C 369.966 305.691,369.933 305.688,369.675 305.927 C 369.416 306.167,369.194 306.124,368.628 305.720 C 368.232 305.439,367.909 305.276,367.909 305.359 C 367.909 305.441,367.564 305.331,367.143 305.113 C 366.721 304.895,366.436 304.620,366.508 304.503 C 366.581 304.386,366.464 304.144,366.250 303.966 C 366.035 303.787,365.879 303.746,365.903 303.874 C 365.998 304.370,365.870 304.596,365.671 304.283 C 365.557 304.102,365.217 303.936,364.917 303.913 C 364.617 303.891,364.371 303.776,364.371 303.658 C 364.371 303.541,364.266 303.510,364.136 303.590 C 364.007 303.670,363.828 303.618,363.740 303.474 C 363.651 303.331,363.453 303.291,363.300 303.385 C 363.123 303.495,363.079 303.409,363.179 303.150 C 363.289 302.862,363.226 302.784,362.966 302.884 C 362.762 302.962,362.432 302.889,362.231 302.723 C 362.031 302.556,361.743 302.497,361.592 302.590 C 361.441 302.683,361.019 302.565,360.654 302.326 C 360.290 302.087,359.546 301.858,359.002 301.818 C 358.412 301.774,357.867 301.558,357.653 301.283 C 357.312 300.843,357.303 300.846,357.469 301.327 C 357.613 301.744,357.580 301.781,357.278 301.536 C 357.077 301.372,356.231 301.161,355.399 301.065 C 353.714 300.872,353.431 300.768,353.643 300.425 C 353.723 300.295,353.668 300.190,353.521 300.190 C 353.374 300.190,353.253 300.303,353.253 300.442 C 353.253 300.581,353.083 300.695,352.874 300.695 C 352.666 300.695,352.495 300.581,352.495 300.442 C 352.495 300.303,352.375 300.190,352.228 300.190 C 352.080 300.190,352.014 300.277,352.080 300.384 C 352.317 300.768,350.096 300.369,349.765 299.968 C 349.578 299.742,349.498 299.700,349.586 299.874 C 349.674 300.047,349.625 300.190,349.478 300.190 C 349.331 300.190,349.209 300.047,349.206 299.874 C 349.204 299.633,349.157 299.629,349.010 299.860 C 348.892 300.047,348.684 300.080,348.467 299.946 C 348.271 299.825,347.861 299.825,347.540 299.947 C 347.224 300.068,346.703 300.108,346.382 300.037 C 346.061 299.966,345.685 299.882,345.546 299.852 C 345.407 299.821,345.134 299.697,344.939 299.575 C 344.694 299.422,344.641 299.445,344.767 299.650 M343.272 317.394 C 344.245 317.401,345.382 317.334,345.799 317.244 C 346.313 317.133,346.447 317.158,346.214 317.321 C 345.657 317.712,346.314 317.920,347.050 317.584 C 347.572 317.347,347.772 317.354,348.017 317.618 C 348.265 317.886,348.251 317.911,347.947 317.748 C 347.738 317.636,347.656 317.641,347.765 317.760 C 348.074 318.100,348.732 318.128,348.531 317.792 C 348.431 317.624,348.534 317.643,348.772 317.836 C 349.001 318.022,349.324 318.089,349.491 317.987 C 349.672 317.875,349.728 317.906,349.630 318.065 C 349.540 318.211,349.629 318.392,349.827 318.468 C 350.026 318.545,350.240 318.471,350.302 318.305 C 350.377 318.106,350.542 318.168,350.788 318.488 C 350.993 318.755,351.432 319.011,351.765 319.057 C 352.236 319.124,352.285 319.087,351.990 318.893 C 351.766 318.746,351.733 318.642,351.909 318.639 C 352.072 318.637,352.385 318.814,352.604 319.033 C 352.822 319.251,353.009 319.336,353.018 319.222 C 353.028 319.108,353.122 319.232,353.226 319.498 C 353.330 319.765,353.607 320.010,353.841 320.045 C 354.075 320.079,354.203 320.005,354.126 319.880 C 354.048 319.754,354.161 319.719,354.376 319.802 C 354.591 319.884,354.720 320.027,354.664 320.118 C 354.608 320.209,354.711 320.488,354.894 320.738 C 355.104 321.025,355.287 321.094,355.392 320.925 C 355.483 320.777,355.418 320.657,355.248 320.657 C 355.077 320.657,355.007 320.588,355.092 320.503 C 355.176 320.418,355.600 320.601,356.033 320.910 C 356.466 321.218,356.760 321.531,356.686 321.604 C 356.612 321.678,356.915 321.921,357.359 322.145 C 357.812 322.374,358.241 322.829,358.338 323.184 C 358.432 323.531,358.521 323.716,358.535 323.595 C 358.548 323.474,358.736 323.521,358.951 323.699 C 359.263 323.958,359.276 324.065,359.014 324.232 C 358.759 324.393,358.757 324.447,359.002 324.475 C 359.176 324.494,359.431 324.525,359.570 324.542 C 359.709 324.559,359.816 324.667,359.807 324.782 C 359.797 324.897,360.001 325.181,360.260 325.414 C 360.519 325.647,360.688 326.036,360.637 326.279 C 360.586 326.522,360.673 326.721,360.830 326.721 C 360.988 326.721,361.035 326.590,360.936 326.430 C 360.822 326.245,360.867 326.207,361.060 326.326 C 361.295 326.471,361.296 326.596,361.063 326.876 C 360.824 327.164,360.835 327.210,361.114 327.103 C 361.539 326.940,362.211 327.885,361.835 328.117 C 361.697 328.202,361.657 328.390,361.746 328.535 C 361.856 328.712,361.964 328.706,362.081 328.516 C 362.184 328.350,362.425 328.592,362.672 329.109 C 363.063 329.929,363.062 329.975,362.656 329.851 C 362.406 329.774,362.456 329.859,362.775 330.052 C 363.192 330.304,363.268 330.488,363.088 330.810 C 362.905 331.136,362.971 331.272,363.371 331.399 C 363.798 331.535,363.836 331.633,363.584 331.937 C 363.414 332.142,363.380 332.289,363.507 332.265 C 364.014 332.169,364.227 332.300,363.900 332.507 C 363.558 332.724,363.769 333.487,364.182 333.526 C 364.286 333.536,364.358 333.572,364.342 333.607 C 364.325 333.642,364.478 334.068,364.682 334.555 C 364.885 335.042,365.022 335.639,364.986 335.882 C 364.951 336.125,365.054 336.325,365.215 336.327 C 365.401 336.330,365.416 336.399,365.256 336.517 C 364.885 336.789,364.827 337.345,365.177 337.271 C 365.345 337.236,365.549 337.619,365.641 338.145 C 365.739 338.709,365.710 339.023,365.566 338.934 C 365.289 338.763,365.580 339.867,365.904 340.216 C 366.021 340.341,365.997 340.668,365.851 340.941 C 365.659 341.298,365.663 341.390,365.862 341.266 C 366.015 341.172,366.140 341.215,366.140 341.362 C 366.140 341.509,366.013 341.630,365.857 341.630 C 365.672 341.630,365.694 341.779,365.920 342.057 C 366.157 342.350,366.167 342.425,365.950 342.295 C 365.590 342.078,365.639 342.995,366.006 343.329 C 366.124 343.437,366.139 343.383,366.039 343.209 C 365.940 343.035,365.978 342.893,366.125 342.893 C 366.470 342.893,366.472 343.320,366.128 343.533 C 365.950 343.643,365.971 343.829,366.191 344.101 C 366.437 344.405,366.440 344.459,366.203 344.317 C 366.004 344.197,365.888 344.274,365.888 344.524 C 365.888 344.743,366.030 345.162,366.203 345.457 C 366.456 345.884,366.456 346.014,366.203 346.106 C 365.829 346.242,365.776 346.936,366.140 346.936 C 366.279 346.936,366.393 347.107,366.393 347.315 C 366.393 347.524,366.298 347.694,366.182 347.694 C 365.936 347.694,365.965 348.614,366.219 348.868 C 366.461 349.110,366.438 350.279,366.194 350.128 C 366.085 350.061,365.996 350.225,365.996 350.492 C 365.996 350.760,366.085 350.979,366.194 350.979 C 366.304 350.979,366.393 351.213,366.393 351.499 C 366.393 351.786,366.279 351.949,366.140 351.864 C 366.001 351.778,365.888 351.828,365.888 351.975 C 365.888 352.122,365.986 352.243,366.107 352.243 C 366.391 352.243,366.214 353.786,365.892 354.108 C 365.733 354.267,365.745 354.471,365.925 354.688 C 366.080 354.875,366.096 355.022,365.961 355.022 C 365.828 355.022,365.719 355.193,365.719 355.401 C 365.719 355.610,365.817 355.780,365.936 355.780 C 366.056 355.780,365.980 356.116,365.768 356.526 C 365.300 357.431,365.283 357.637,365.698 357.394 C 365.872 357.293,365.815 357.437,365.572 357.715 C 365.098 358.257,364.964 358.945,365.382 358.686 C 365.521 358.600,365.635 358.650,365.635 358.797 C 365.635 358.945,365.549 359.065,365.443 359.065 C 365.337 359.065,365.092 359.321,364.897 359.634 C 364.573 360.154,364.578 360.173,364.963 359.855 C 365.494 359.416,365.499 359.663,364.974 360.464 C 364.750 360.806,364.664 361.088,364.785 361.090 C 364.905 361.093,364.833 361.202,364.624 361.334 C 364.191 361.608,364.114 362.088,364.433 362.519 C 364.572 362.706,364.494 362.903,364.221 363.056 C 363.939 363.214,363.839 363.482,363.931 363.834 C 364.008 364.130,363.981 364.316,363.871 364.248 C 363.761 364.180,363.516 364.315,363.326 364.549 C 363.089 364.841,363.080 364.915,363.298 364.784 C 363.754 364.510,363.685 364.881,363.171 365.469 C 362.928 365.747,362.871 365.891,363.045 365.790 C 363.488 365.530,363.440 366.013,362.984 366.391 C 362.778 366.562,362.682 366.823,362.773 366.970 C 362.877 367.138,362.777 367.175,362.505 367.070 C 362.247 366.972,362.134 367.006,362.225 367.154 C 362.310 367.291,362.284 367.404,362.167 367.404 C 362.050 367.404,361.929 367.716,361.898 368.099 C 361.866 368.481,361.727 368.832,361.588 368.878 C 361.450 368.925,361.412 369.086,361.505 369.237 C 361.611 369.408,361.526 369.454,361.279 369.359 C 360.764 369.161,360.515 369.420,360.843 369.815 C 361.084 370.106,360.682 370.445,360.136 370.410 C 360.034 370.403,359.826 370.830,359.676 371.358 C 359.479 372.050,359.232 372.358,358.791 372.462 C 358.455 372.542,358.171 372.715,358.159 372.848 C 358.104 373.450,357.706 373.991,357.403 373.875 C 357.180 373.789,357.121 373.881,357.226 374.154 C 357.330 374.427,357.284 374.501,357.085 374.378 C 356.914 374.273,356.720 374.369,356.630 374.604 C 356.544 374.829,356.311 374.951,356.113 374.875 C 355.902 374.794,355.822 374.847,355.919 375.004 C 356.127 375.342,355.279 375.981,354.843 375.813 C 354.660 375.743,354.517 375.866,354.517 376.094 C 354.517 376.460,354.226 376.614,353.696 376.530 C 353.591 376.514,353.506 376.621,353.506 376.768 C 353.506 376.915,353.392 376.965,353.253 376.879 C 353.114 376.793,353.001 376.850,353.001 377.006 C 353.001 377.161,352.887 377.218,352.748 377.132 C 352.609 377.046,352.495 377.077,352.495 377.201 C 352.495 377.325,352.325 377.427,352.116 377.427 C 351.908 377.427,351.737 377.310,351.737 377.168 C 351.737 377.026,351.584 377.119,351.397 377.375 C 351.205 377.637,350.926 377.761,350.759 377.657 C 350.581 377.547,350.489 377.608,350.531 377.808 C 350.577 378.031,350.366 378.125,349.897 378.091 C 349.511 378.062,349.255 378.137,349.329 378.257 C 349.403 378.377,349.236 378.415,348.958 378.342 C 348.667 378.266,348.452 378.335,348.452 378.503 C 348.452 378.665,348.310 378.769,348.136 378.735 C 347.963 378.701,347.386 378.760,346.854 378.865 C 346.220 378.991,345.764 378.955,345.530 378.761 C 345.250 378.529,345.140 378.553,345.017 378.872 C 344.931 379.096,344.752 379.280,344.620 379.280 C 344.488 379.280,344.465 379.138,344.569 378.964 C 344.715 378.721,344.675 378.715,344.395 378.936 C 343.891 379.334,342.321 379.251,341.984 378.809 C 341.784 378.546,341.657 378.526,341.527 378.736 C 341.428 378.896,341.155 379.025,340.920 379.023 C 340.551 379.020,340.544 378.985,340.872 378.765 C 341.150 378.579,341.049 378.551,340.493 378.661 C 340.076 378.744,339.621 378.810,339.482 378.807 C 338.730 378.791,337.809 378.558,337.506 378.307 C 337.316 378.149,337.095 378.087,337.013 378.169 C 336.799 378.383,335.313 378.018,335.313 377.752 C 335.313 377.628,335.512 377.591,335.755 377.669 C 336.105 377.782,336.123 377.759,335.841 377.558 C 335.645 377.419,335.314 377.371,335.105 377.451 C 334.896 377.531,334.789 377.492,334.867 377.364 C 334.946 377.237,334.674 377.120,334.262 377.104 C 333.851 377.089,333.378 376.940,333.213 376.774 C 332.980 376.538,333.025 376.511,333.418 376.652 C 333.958 376.846,333.939 376.813,333.180 376.239 C 332.910 376.035,332.769 376.003,332.868 376.167 C 332.966 376.331,332.931 376.537,332.790 376.624 C 332.649 376.711,332.533 376.662,332.533 376.515 C 332.533 376.368,332.375 376.248,332.181 376.248 C 331.988 376.248,331.764 376.077,331.684 375.869 C 331.604 375.660,331.336 375.489,331.088 375.487 C 330.841 375.486,330.369 375.145,330.041 374.729 C 329.713 374.314,329.293 373.973,329.108 373.973 C 328.924 373.973,328.692 373.842,328.592 373.682 C 328.472 373.486,328.529 373.457,328.767 373.593 C 328.962 373.704,328.743 373.448,328.281 373.023 C 327.818 372.598,327.420 372.154,327.396 372.038 C 327.372 371.921,327.254 371.859,327.133 371.899 C 327.011 371.940,326.984 371.785,327.072 371.555 C 327.185 371.261,327.126 371.179,326.872 371.276 C 326.467 371.431,326.122 370.792,326.383 370.370 C 326.491 370.196,326.396 370.157,326.118 370.264 C 325.880 370.355,325.744 370.334,325.816 370.218 C 325.888 370.101,325.780 369.789,325.576 369.526 C 325.318 369.193,325.228 369.162,325.281 369.425 C 325.324 369.634,325.245 369.548,325.107 369.236 C 324.968 368.923,324.773 368.667,324.673 368.667 C 324.573 368.667,324.524 368.376,324.563 368.021 C 324.614 367.550,324.536 367.412,324.275 367.513 C 324.076 367.589,323.985 367.539,324.070 367.401 C 324.155 367.263,324.097 367.151,323.942 367.151 C 323.787 367.151,323.721 367.052,323.795 366.931 C 323.870 366.810,323.707 366.452,323.432 366.135 C 323.080 365.729,323.008 365.468,323.189 365.250 C 323.478 364.901,323.263 364.119,322.877 364.119 C 322.738 364.119,322.691 363.944,322.774 363.730 C 322.858 363.509,322.761 363.280,322.549 363.198 C 322.344 363.120,322.235 362.960,322.306 362.844 C 322.378 362.728,322.281 362.487,322.091 362.309 C 321.900 362.131,321.797 361.784,321.862 361.536 C 321.926 361.289,321.852 361.087,321.697 361.087 C 321.542 361.087,321.415 360.966,321.415 360.819 C 321.415 360.672,321.531 360.623,321.673 360.711 C 321.815 360.799,321.689 360.405,321.392 359.836 C 321.096 359.268,320.912 358.577,320.984 358.302 C 321.058 358.021,320.987 357.793,320.823 357.782 C 320.627 357.768,320.634 357.720,320.846 357.634 C 321.250 357.471,321.260 356.791,320.859 356.791 C 320.628 356.791,320.626 356.721,320.850 356.496 C 321.074 356.272,321.041 356.117,320.711 355.846 C 320.473 355.650,320.420 355.562,320.594 355.650 C 320.948 355.829,321.041 355.133,320.692 354.917 C 320.572 354.843,320.495 354.159,320.522 353.398 C 320.548 352.637,320.500 352.057,320.413 352.111 C 320.327 352.164,320.240 351.986,320.219 351.714 C 320.197 351.418,320.292 351.289,320.456 351.390 C 320.647 351.508,320.666 351.336,320.518 350.827 C 320.402 350.424,320.300 349.736,320.292 349.298 C 320.284 348.859,320.193 348.553,320.088 348.618 C 319.984 348.682,319.899 348.501,319.899 348.215 C 319.899 347.928,319.994 347.694,320.109 347.694 C 320.225 347.694,320.300 347.438,320.275 347.126 C 320.250 346.813,320.319 346.242,320.427 345.857 C 320.554 345.407,320.534 345.213,320.371 345.314 C 320.043 345.517,320.195 344.596,320.531 344.350 C 320.687 344.235,320.663 344.163,320.467 344.161 C 320.294 344.158,320.152 344.036,320.152 343.889 C 320.152 343.742,320.265 343.692,320.404 343.778 C 320.548 343.867,320.657 343.649,320.657 343.272 C 320.657 342.810,320.562 342.668,320.341 342.800 C 320.127 342.929,320.136 342.853,320.372 342.563 C 320.563 342.328,320.625 342.135,320.511 342.135 C 320.397 342.135,320.440 341.999,320.606 341.832 C 320.990 341.448,321.000 340.691,320.623 340.566 C 320.436 340.503,320.480 340.327,320.751 340.055 C 321.005 339.802,321.067 339.579,320.912 339.483 C 320.772 339.397,320.657 339.212,320.657 339.073 C 320.657 338.934,320.783 338.898,320.937 338.993 C 321.127 339.111,321.159 338.985,321.036 338.598 C 320.910 338.201,320.943 338.083,321.144 338.208 C 321.348 338.333,321.402 338.101,321.328 337.418 C 321.260 336.795,321.354 336.299,321.593 336.026 C 321.798 335.794,321.922 335.396,321.870 335.142 C 321.818 334.888,321.950 334.542,322.164 334.373 C 322.429 334.163,322.452 334.063,322.236 334.057 C 322.063 334.053,321.920 333.929,321.920 333.782 C 321.920 333.634,322.024 333.578,322.150 333.656 C 322.276 333.734,322.322 333.583,322.254 333.320 C 322.185 333.058,322.270 332.756,322.443 332.649 C 322.658 332.516,322.693 332.559,322.552 332.786 C 322.423 332.995,322.447 333.055,322.617 332.950 C 322.765 332.859,322.855 332.500,322.817 332.153 C 322.779 331.806,322.853 331.522,322.981 331.522 C 323.109 331.522,323.144 331.410,323.059 331.272 C 322.974 331.134,323.032 330.821,323.189 330.577 C 323.459 330.157,323.467 330.157,323.337 330.575 C 323.262 330.818,323.323 331.017,323.474 331.017 C 323.632 331.017,323.696 330.742,323.624 330.366 C 323.539 329.924,323.660 329.565,324.000 329.248 C 324.276 328.992,324.426 328.660,324.335 328.512 C 324.228 328.340,324.332 328.305,324.624 328.414 C 325.038 328.570,325.045 328.542,324.700 328.110 C 324.396 327.729,324.392 327.678,324.680 327.851 C 324.950 328.014,324.998 327.962,324.875 327.642 C 324.776 327.384,324.900 327.026,325.190 326.737 C 325.453 326.474,325.596 326.186,325.508 326.097 C 325.419 326.009,325.531 326.007,325.756 326.094 C 325.981 326.180,326.240 326.129,326.332 325.981 C 326.423 325.832,326.356 325.711,326.183 325.711 C 326.004 325.711,326.080 325.538,326.357 325.313 C 326.627 325.094,326.677 324.989,326.469 325.079 C 326.260 325.169,326.305 325.067,326.569 324.853 C 326.833 324.639,327.138 324.519,327.247 324.586 C 327.355 324.653,327.511 324.600,327.592 324.469 C 327.674 324.337,327.607 324.147,327.445 324.047 C 327.247 323.925,327.217 323.974,327.353 324.195 C 327.495 324.424,327.459 324.465,327.238 324.328 C 327.009 324.187,327.221 323.836,327.986 323.089 C 328.695 322.396,329.094 322.157,329.176 322.376 C 329.250 322.573,329.466 322.371,329.716 321.870 C 329.974 321.354,330.325 321.032,330.638 321.024 C 330.916 321.018,331.123 320.898,331.097 320.759 C 331.071 320.619,331.270 320.368,331.539 320.200 C 331.834 320.015,332.028 319.996,332.028 320.149 C 332.028 320.290,331.914 320.404,331.775 320.404 C 331.636 320.404,331.522 320.514,331.522 320.649 C 331.522 320.784,331.693 320.828,331.901 320.748 C 332.110 320.668,332.280 320.400,332.280 320.152 C 332.280 319.903,332.464 319.630,332.688 319.544 C 332.974 319.434,333.053 319.497,332.953 319.757 C 332.856 320.009,332.932 320.080,333.192 319.980 C 333.402 319.899,333.519 319.692,333.452 319.519 C 333.329 319.198,334.508 318.505,334.756 318.752 C 334.830 318.827,334.740 318.888,334.555 318.888 C 334.369 318.888,334.277 318.948,334.350 319.020 C 334.565 319.236,335.322 318.856,335.170 318.609 C 335.093 318.485,335.151 318.383,335.298 318.383 C 335.445 318.383,335.565 318.514,335.565 318.674 C 335.565 318.834,335.778 318.721,336.037 318.421 C 336.538 317.844,337.081 317.700,337.081 318.145 C 337.081 318.292,337.197 318.341,337.338 318.254 C 337.480 318.167,337.541 318.008,337.476 317.902 C 337.410 317.796,337.517 317.709,337.713 317.709 C 337.909 317.709,338.018 317.794,337.954 317.897 C 337.795 318.154,338.533 318.031,338.780 317.760 C 338.888 317.641,338.806 317.636,338.598 317.748 C 338.284 317.916,338.275 317.891,338.545 317.601 C 338.806 317.320,338.911 317.314,339.071 317.572 C 339.274 317.901,340.114 317.736,340.114 317.367 C 340.114 317.255,340.426 317.212,340.809 317.272 C 341.191 317.331,342.299 317.386,343.272 317.394 M357.044 322.509 C 357.252 322.684,357.557 322.980,357.721 323.165 C 357.965 323.441,358.008 323.423,357.956 323.070 C 357.891 322.626,357.365 322.178,356.917 322.185 C 356.778 322.187,356.835 322.333,357.044 322.509 M327.834 323.500 C 327.357 324.063,327.357 324.065,327.858 323.659 C 328.136 323.434,328.534 323.187,328.743 323.110 C 329.065 322.992,329.061 322.968,328.719 322.951 C 328.497 322.940,328.099 323.187,327.834 323.500 M376.045 385.395 C 375.659 385.782,375.653 386.174,376.036 386.047 C 376.198 385.993,376.358 385.756,376.393 385.520 C 376.468 385.010,376.440 385.000,376.045 385.395 " stroke="none" fill="#24dc2b" fill-rule="evenodd"></path><path id="path1" d="M23.752 186.860 L 23.752 282.754 56.475 282.754 L 89.198 282.754 89.198 186.860 L 89.198 90.967 56.475 90.967 L 23.752 90.967 23.752 186.860 M42.081 302.148 C 41.998 302.391,34.278 323.285,24.926 348.579 C 15.573 373.872,7.965 394.653,8.019 394.757 C 8.072 394.861,13.611 394.946,20.328 394.946 L 32.541 394.946 33.792 391.346 C 34.480 389.365,35.928 385.158,37.011 381.996 L 38.979 376.248 55.970 376.248 L 72.961 376.248 74.676 381.238 C 75.619 383.983,77.068 388.190,77.895 390.587 L 79.400 394.946 92.024 394.946 C 103.027 394.946,104.638 394.898,104.567 394.573 C 104.522 394.368,96.810 373.391,87.429 347.959 L 70.373 301.718 56.303 301.712 C 43.125 301.706,42.223 301.734,42.081 302.148 M61.568 342.844 C 64.534 351.503,66.961 358.638,66.961 358.700 C 66.961 358.762,62.003 358.812,55.943 358.812 C 47.237 358.812,44.947 358.746,45.034 358.497 C 45.095 358.323,47.581 351.053,50.557 342.341 C 53.534 333.629,56.016 326.636,56.072 326.801 C 56.128 326.966,58.601 334.185,61.568 342.844 " stroke="none" fill="#1484fc" fill-rule="evenodd"></path><path id="path2" d="M118.256 169.678 L 118.256 283.260 151.105 283.260 L 183.955 283.260 183.955 169.678 L 183.955 56.096 151.105 56.096 L 118.256 56.096 118.256 169.678 M121.541 348.327 L 121.541 394.948 155.338 394.884 L 189.135 394.820 189.135 385.723 L 189.135 376.627 167.593 376.562 L 146.052 376.497 146.052 339.102 L 146.052 301.706 133.797 301.706 L 121.541 301.706 121.541 348.327 " stroke="none" fill="#fc2c1c" fill-rule="evenodd"></path><path id="path3" d="M212.761 220.215 L 212.761 283.007 245.610 283.007 L 278.459 283.007 278.459 220.215 L 278.459 157.423 245.610 157.423 L 212.761 157.423 212.761 220.215 M239.040 300.089 C 220.750 302.249,210.007 308.039,201.865 320.125 C 190.896 336.408,191.473 363.758,203.111 379.154 C 217.221 397.818,246.454 402.186,279.722 390.602 L 282.123 389.766 282.123 366.646 L 282.123 343.525 260.455 343.460 L 238.787 343.396 238.787 352.368 L 238.787 361.339 248.010 361.339 L 257.233 361.339 257.233 370.301 L 257.233 379.263 254.390 379.335 C 233.781 379.853,222.481 371.801,219.953 354.799 C 216.549 331.903,229.994 316.169,251.483 317.904 C 259.720 318.568,266.785 321.664,276.613 328.917 C 278.374 330.216,278.484 330.259,280.088 330.259 L 281.744 330.259 281.744 319.175 L 281.744 308.092 280.164 307.393 C 279.296 307.009,278.080 306.469,277.463 306.193 C 271.208 303.400,264.682 301.594,257.107 300.559 C 254.217 300.164,241.257 299.827,239.040 300.089 " stroke="none" fill="#fc9424" fill-rule="evenodd"></path><path id="path4" d="M307.075 143.966 L 307.138 283.133 307.202 144.093 L 307.265 5.054 339.861 5.054 L 372.457 5.054 372.521 143.967 L 372.584 282.881 372.584 143.904 L 372.584 4.927 339.798 4.863 L 307.012 4.799 307.075 143.966 M340.231 299.699 C 340.147 299.834,339.973 299.880,339.844 299.800 C 339.714 299.720,339.608 299.775,339.608 299.922 C 339.608 300.069,339.779 300.190,339.987 300.190 C 340.196 300.190,340.366 300.104,340.367 300.000 C 340.367 299.831,342.625 299.833,347.378 300.007 C 348.247 300.038,348.958 299.980,348.958 299.877 C 348.958 299.774,348.702 299.692,348.389 299.694 C 348.076 299.697,346.147 299.643,344.102 299.576 C 341.821 299.500,340.324 299.548,340.231 299.699 M336.576 300.110 C 336.576 300.309,336.677 300.410,336.800 300.334 C 336.922 300.258,337.548 300.176,338.189 300.152 C 339.835 300.089,339.646 299.747,337.966 299.747 C 336.927 299.747,336.576 299.839,336.576 300.110 M349.210 299.978 C 349.210 300.124,349.381 300.178,349.589 300.098 C 349.798 300.018,349.968 300.051,349.968 300.172 C 349.968 300.293,350.461 300.431,351.064 300.480 C 351.812 300.541,352.159 300.470,352.158 300.256 C 352.158 300.063,351.812 299.950,351.253 299.959 C 350.755 299.967,350.092 299.915,349.779 299.844 C 349.466 299.772,349.210 299.833,349.210 299.978 M334.215 300.108 C 334.067 300.256,333.703 300.310,332.091 300.420 C 331.917 300.432,331.775 300.548,331.775 300.676 C 331.775 300.906,332.726 300.856,334.112 300.554 C 334.495 300.470,334.807 300.297,334.807 300.169 C 334.807 299.898,334.462 299.861,334.215 300.108 M335.060 300.136 C 335.060 300.245,335.287 300.352,335.565 300.373 C 335.843 300.394,336.071 300.304,336.071 300.174 C 336.071 300.043,335.843 299.937,335.565 299.937 C 335.287 299.937,335.060 300.026,335.060 300.136 M353.646 300.421 C 353.431 300.769,353.709 300.871,355.399 301.065 C 356.231 301.161,357.055 301.358,357.231 301.503 C 357.460 301.694,357.550 301.671,357.553 301.421 C 357.556 301.175,357.611 301.160,357.743 301.367 C 357.943 301.681,359.823 302.121,359.823 301.854 C 359.823 301.639,358.845 301.278,357.781 301.101 C 357.306 301.022,356.633 300.890,356.286 300.810 C 355.938 300.729,355.360 300.631,355.001 300.593 C 354.641 300.555,354.223 300.446,354.070 300.352 C 353.918 300.258,353.727 300.289,353.646 300.421 M331.029 300.682 C 330.827 300.810,330.574 300.860,330.466 300.793 C 330.359 300.727,329.785 300.811,329.191 300.981 C 328.597 301.151,328.026 301.269,327.922 301.245 C 327.817 301.220,327.732 301.321,327.732 301.468 C 327.732 301.615,327.617 301.665,327.477 301.578 C 327.117 301.355,326.178 301.693,326.356 301.981 C 326.437 302.112,326.609 302.154,326.738 302.074 C 326.867 301.995,327.228 301.870,327.542 301.796 C 327.855 301.723,328.566 301.553,329.122 301.419 C 329.678 301.285,330.445 301.160,330.828 301.142 C 331.217 301.123,331.522 300.962,331.522 300.775 C 331.522 300.383,331.507 300.380,331.029 300.682 M360.389 302.109 C 360.631 302.361,361.085 302.586,361.400 302.610 C 362.267 302.677,363.108 303.000,363.108 303.266 C 363.108 303.397,363.214 303.439,363.343 303.359 C 363.473 303.279,363.651 303.331,363.740 303.474 C 363.828 303.618,364.007 303.670,364.136 303.590 C 364.266 303.510,364.371 303.541,364.371 303.658 C 364.371 303.776,364.617 303.891,364.917 303.913 C 365.217 303.936,365.543 304.084,365.640 304.241 C 365.738 304.399,365.862 304.497,365.916 304.460 C 365.970 304.422,366.321 304.592,366.696 304.837 C 367.071 305.083,367.525 305.309,367.706 305.339 C 367.887 305.369,368.320 305.554,368.667 305.749 C 369.015 305.945,369.583 306.141,369.931 306.185 L 370.562 306.265 369.931 305.896 C 368.889 305.288,366.396 304.003,366.198 303.972 C 366.097 303.956,365.673 303.793,365.256 303.610 C 364.238 303.161,363.556 302.907,363.152 302.824 C 362.967 302.786,362.455 302.589,362.014 302.385 C 360.488 301.679,359.877 301.576,360.389 302.109 M324.763 302.140 C 323.932 302.438,324.465 302.916,325.331 302.650 C 325.818 302.501,326.174 302.338,326.124 302.287 C 325.956 302.119,325.084 302.025,324.763 302.140 M322.550 303.012 C 321.717 303.293,320.966 303.636,320.881 303.773 C 320.796 303.910,320.657 304.023,320.571 304.024 C 320.104 304.025,319.394 304.321,319.394 304.515 C 319.394 304.637,319.212 304.738,318.990 304.738 C 318.668 304.738,317.774 305.142,316.884 305.690 C 316.823 305.727,316.895 305.878,317.044 306.027 C 317.235 306.218,317.432 306.127,317.722 305.714 C 317.946 305.393,318.130 305.216,318.130 305.320 C 318.130 305.424,318.500 305.312,318.951 305.071 C 319.403 304.830,319.829 304.619,319.899 304.601 C 320.916 304.350,321.415 304.137,321.415 303.952 C 321.415 303.828,321.586 303.727,321.794 303.727 C 322.003 303.727,322.175 303.585,322.177 303.411 C 322.180 303.201,322.262 303.222,322.426 303.474 C 322.589 303.727,322.672 303.748,322.675 303.538 C 322.677 303.364,322.877 303.220,323.121 303.218 C 323.630 303.213,324.365 302.802,324.185 302.622 C 324.118 302.556,323.382 302.731,322.550 303.012 M316.047 306.112 C 315.807 306.287,315.691 306.510,315.789 306.608 C 315.887 306.706,315.771 306.711,315.532 306.619 C 315.293 306.528,315.098 306.565,315.098 306.703 C 315.098 306.840,314.844 307.019,314.534 307.101 C 314.077 307.220,314.031 307.309,314.292 307.570 C 314.552 307.831,314.656 307.824,314.836 307.533 C 314.958 307.336,315.264 307.144,315.515 307.107 C 315.767 307.070,316.013 306.920,316.062 306.773 C 316.111 306.627,316.312 306.507,316.509 306.507 C 316.706 306.507,316.867 306.400,316.867 306.269 C 316.867 305.854,316.497 305.783,316.047 306.112 M370.436 306.702 C 370.436 306.809,370.862 307.121,371.383 307.396 C 371.905 307.670,372.480 308.093,372.661 308.337 C 373.073 308.890,373.468 308.910,373.468 308.378 C 373.468 308.157,373.241 307.916,372.963 307.843 C 372.685 307.771,372.457 307.599,372.457 307.461 C 372.457 307.323,372.288 307.276,372.081 307.355 C 371.864 307.438,371.731 307.370,371.766 307.192 C 371.799 307.024,371.627 306.901,371.383 306.921 C 371.140 306.940,370.941 306.855,370.941 306.731 C 370.941 306.608,370.828 306.507,370.689 306.507 C 370.550 306.507,370.436 306.594,370.436 306.702 M312.645 308.369 C 312.060 308.804,311.576 309.302,311.571 309.476 C 311.565 309.649,311.418 309.763,311.244 309.728 C 311.071 309.694,310.957 309.807,310.992 309.981 C 311.027 310.155,310.824 310.297,310.541 310.297 C 310.240 310.297,309.941 310.531,309.818 310.865 C 309.702 311.178,309.561 311.377,309.504 311.308 C 309.447 311.238,309.119 311.447,308.775 311.772 L 308.149 312.362 308.781 312.271 C 309.128 312.221,309.384 312.041,309.349 311.870 C 309.315 311.700,309.424 311.589,309.593 311.623 C 309.761 311.658,310.004 311.459,310.131 311.181 C 310.258 310.903,310.717 310.496,311.151 310.275 C 311.585 310.055,312.080 309.600,312.251 309.265 C 312.423 308.929,312.565 308.744,312.567 308.854 C 312.569 308.964,312.713 308.931,312.887 308.782 C 313.061 308.633,313.419 308.362,313.683 308.179 C 313.948 307.997,314.061 307.787,313.936 307.713 C 313.811 307.639,313.230 307.934,312.645 308.369 M373.721 308.892 C 373.721 309.092,373.834 309.327,373.973 309.413 C 374.112 309.498,374.226 309.440,374.226 309.283 C 374.226 308.950,374.712 309.428,375.137 310.180 C 375.291 310.451,375.632 310.674,375.895 310.675 C 376.159 310.675,376.343 310.826,376.305 311.011 C 376.266 311.195,376.352 311.273,376.494 311.185 C 376.636 311.097,376.977 311.406,377.252 311.871 C 377.526 312.336,378.206 313.054,378.763 313.465 C 379.411 313.943,379.727 314.350,379.639 314.593 C 379.533 314.886,379.571 314.904,379.806 314.671 C 380.134 314.345,378.923 312.628,378.462 312.767 C 378.335 312.805,378.297 312.730,378.378 312.600 C 378.556 312.311,376.318 310.297,375.818 310.297 C 375.621 310.297,375.522 310.196,375.599 310.072 C 375.723 309.871,374.215 308.528,373.864 308.528 C 373.785 308.528,373.721 308.692,373.721 308.892 M307.721 312.836 C 306.923 313.302,306.147 314.573,306.759 314.413 C 307.037 314.340,307.265 314.117,307.265 313.916 C 307.265 313.716,307.371 313.617,307.500 313.697 C 307.746 313.849,308.101 313.428,308.183 312.887 C 308.239 312.516,308.265 312.519,307.721 312.836 M305.144 315.753 C 304.643 316.269,304.232 316.845,304.232 317.032 C 304.232 317.219,304.143 317.372,304.034 317.372 C 303.925 317.372,303.613 317.727,303.339 318.161 C 303.066 318.595,302.647 319.249,302.408 319.614 C 301.162 321.516,300.512 323.150,301.327 322.336 C 301.535 322.127,301.706 321.835,301.706 321.686 C 301.706 321.537,301.826 321.415,301.973 321.415 C 302.120 321.415,302.171 321.301,302.085 321.162 C 301.999 321.023,302.068 320.910,302.238 320.910 C 302.409 320.910,302.472 320.834,302.379 320.741 C 302.286 320.648,302.398 320.363,302.629 320.109 C 302.859 319.854,302.944 319.645,302.819 319.642 C 302.693 319.640,302.761 319.531,302.969 319.399 C 303.178 319.267,303.353 319.013,303.360 318.834 C 303.366 318.655,303.516 318.540,303.694 318.579 C 303.872 318.617,303.956 318.549,303.881 318.427 C 303.806 318.306,303.972 317.962,304.251 317.663 C 304.530 317.364,304.696 317.119,304.621 317.119 C 304.546 317.119,304.717 316.888,305.000 316.605 C 305.283 316.322,305.447 315.982,305.366 315.850 C 305.284 315.717,305.392 315.676,305.607 315.759 C 305.839 315.848,306.062 315.740,306.157 315.492 C 306.457 314.711,306.056 314.814,305.144 315.753 M380.038 315.098 C 380.038 315.237,380.197 315.351,380.392 315.351 C 380.587 315.351,380.872 315.710,381.025 316.150 C 381.178 316.589,381.367 316.886,381.444 316.809 C 381.704 316.548,380.825 314.845,380.430 314.845 C 380.214 314.845,380.038 314.959,380.038 315.098 M381.807 316.815 C 381.807 317.111,382.034 317.476,382.312 317.625 C 382.590 317.774,382.817 318.062,382.817 318.265 C 382.817 318.469,382.928 318.636,383.062 318.636 C 383.197 318.636,383.246 318.795,383.171 318.989 C 383.097 319.183,383.145 319.410,383.279 319.493 C 383.921 319.890,383.644 318.872,382.776 317.645 C 382.045 316.612,381.807 316.408,381.807 316.815 M339.875 317.570 C 339.550 317.919,339.578 317.944,340.127 317.797 C 340.467 317.706,340.963 317.630,341.230 317.628 C 341.873 317.624,341.550 317.321,340.817 317.241 C 340.500 317.207,340.076 317.355,339.875 317.570 M345.167 317.372 C 344.854 317.575,344.875 317.617,345.294 317.617 C 345.572 317.617,345.970 317.507,346.178 317.372 C 346.492 317.169,346.470 317.127,346.052 317.127 C 345.774 317.127,345.376 317.237,345.167 317.372 M338.481 317.609 C 338.400 317.740,338.128 317.807,337.876 317.758 C 337.609 317.707,337.418 317.818,337.418 318.026 C 337.418 318.222,337.513 318.383,337.629 318.383 C 337.745 318.383,337.840 318.284,337.840 318.163 C 337.840 318.042,338.085 317.957,338.386 317.974 C 338.686 317.990,338.980 317.862,339.038 317.688 C 339.162 317.322,338.699 317.257,338.481 317.609 M346.936 317.625 C 346.557 317.870,346.891 317.950,348.263 317.945 C 348.506 317.944,348.705 318.042,348.705 318.163 C 348.705 318.465,349.397 318.441,349.588 318.133 C 349.674 317.994,349.580 317.945,349.375 318.024 C 349.174 318.101,348.933 318.041,348.839 317.891 C 348.746 317.740,348.572 317.677,348.452 317.751 C 348.333 317.825,348.163 317.770,348.076 317.629 C 347.877 317.308,347.429 317.306,346.936 317.625 M336.108 318.283 C 335.921 318.495,335.807 318.705,335.856 318.749 C 336.035 318.912,337.081 318.390,337.081 318.138 C 337.081 317.753,336.501 317.839,336.108 318.283 M350.285 318.446 C 350.343 318.620,350.565 318.764,350.777 318.766 C 350.990 318.768,351.325 318.903,351.522 319.067 C 352.277 319.693,353.253 319.922,353.253 319.472 C 353.253 319.243,353.183 319.127,353.097 319.213 C 353.011 319.299,352.769 319.198,352.559 318.988 C 352.349 318.778,352.022 318.666,351.831 318.739 C 351.640 318.813,351.485 318.750,351.485 318.601 C 351.485 318.451,351.314 318.394,351.105 318.474 C 350.897 318.554,350.726 318.510,350.726 318.375 C 350.726 318.240,350.603 318.130,350.453 318.130 C 350.302 318.130,350.227 318.272,350.285 318.446 M335.203 318.663 C 335.315 318.844,335.210 318.892,334.902 318.800 C 334.348 318.633,333.092 319.241,333.487 319.485 C 333.838 319.702,334.589 319.402,334.412 319.115 C 334.335 318.991,334.523 318.917,334.828 318.952 C 335.133 318.986,335.434 318.872,335.495 318.699 C 335.557 318.525,335.478 318.383,335.319 318.383 C 335.160 318.383,335.108 318.509,335.203 318.663 M332.596 319.576 C 332.238 319.704,332.161 320.404,332.506 320.404 C 332.719 320.404,333.130 319.638,332.981 319.518 C 332.943 319.488,332.770 319.514,332.596 319.576 M353.510 319.565 C 353.501 320.230,354.398 320.788,355.275 320.663 C 355.483 320.633,355.575 320.689,355.480 320.786 C 355.208 321.063,356.207 321.995,357.089 322.288 C 357.535 322.436,357.912 322.751,357.949 323.007 C 358.037 323.625,358.541 324.195,359.001 324.195 C 359.308 324.195,359.320 324.123,359.067 323.818 C 358.896 323.611,358.662 323.499,358.549 323.569 C 358.436 323.639,358.307 323.439,358.262 323.124 C 358.213 322.779,357.858 322.391,357.366 322.145 C 356.918 321.921,356.612 321.678,356.686 321.604 C 356.887 321.403,355.359 320.383,354.975 320.462 C 354.793 320.500,354.672 320.389,354.706 320.215 C 354.763 319.932,354.602 319.854,354.103 319.921 C 354.014 319.932,353.845 319.790,353.728 319.605 C 353.585 319.380,353.512 319.367,353.510 319.565 M383.828 320.067 C 383.828 320.438,383.903 320.666,383.994 320.575 C 384.086 320.483,384.310 320.533,384.493 320.685 C 384.729 320.880,384.712 320.732,384.435 320.177 C 383.956 319.218,383.828 319.195,383.828 320.067 M331.396 320.309 C 331.118 320.513,330.912 320.759,330.937 320.857 C 330.963 320.956,330.826 321.004,330.633 320.964 C 330.283 320.893,329.326 322.082,329.552 322.308 C 329.734 322.490,331.503 321.077,331.513 320.741 C 331.518 320.579,331.665 320.396,331.838 320.334 C 332.012 320.272,332.097 320.158,332.027 320.081 C 331.958 320.003,331.673 320.106,331.396 320.309 M384.586 321.556 C 384.586 321.773,384.700 321.880,384.839 321.794 C 385.059 321.658,385.212 322.171,385.122 322.742 C 385.085 322.973,385.452 322.992,385.675 322.769 C 385.863 322.581,385.078 321.162,384.784 321.162 C 384.675 321.162,384.586 321.340,384.586 321.556 M327.858 323.184 C 327.316 323.740,326.980 324.197,327.112 324.200 C 327.245 324.203,327.069 324.441,326.721 324.727 C 326.374 325.014,326.260 325.174,326.469 325.082 C 326.677 324.990,326.620 325.104,326.342 325.336 C 325.843 325.751,325.843 325.755,326.336 325.668 C 326.611 325.620,326.960 325.328,327.114 325.021 C 327.267 324.714,327.706 324.216,328.089 323.914 C 328.623 323.494,328.707 323.317,328.448 323.153 C 328.206 322.999,328.272 322.938,328.680 322.935 C 329.015 322.933,329.248 322.776,329.248 322.552 C 329.248 321.950,328.916 322.101,327.858 323.184 M300.064 323.775 C 299.870 324.240,299.676 324.780,299.634 324.976 C 299.592 325.171,299.493 325.389,299.414 325.458 C 298.967 325.851,298.441 327.732,298.778 327.732 C 299.013 327.732,299.090 327.542,299.007 327.164 C 298.903 326.691,298.932 326.659,299.179 326.974 C 299.425 327.289,299.454 327.257,299.351 326.785 C 299.282 326.472,299.336 326.216,299.470 326.216 C 299.604 326.216,299.650 326.112,299.571 325.985 C 299.493 325.858,299.539 325.716,299.675 325.669 C 299.811 325.622,299.962 325.319,300.011 324.995 C 300.060 324.671,300.259 324.308,300.454 324.188 C 300.648 324.068,300.726 323.888,300.627 323.789 C 300.528 323.690,300.573 323.457,300.728 323.270 C 300.936 323.019,300.932 322.931,300.713 322.931 C 300.550 322.931,300.258 323.311,300.064 323.775 M359.069 324.659 C 359.079 325.070,360.541 326.463,360.644 326.160 C 360.705 325.982,360.538 325.647,360.272 325.414 C 360.007 325.181,359.826 324.908,359.870 324.806 C 359.914 324.705,359.750 324.593,359.507 324.557 C 359.264 324.521,359.067 324.567,359.069 324.659 M386.247 324.670 C 386.171 324.793,386.318 325.162,386.573 325.491 C 386.829 325.820,386.993 326.218,386.938 326.374 C 386.884 326.531,387.003 326.722,387.204 326.799 C 387.583 326.944,387.595 326.742,387.269 325.770 C 387.163 325.455,386.959 325.271,386.815 325.360 C 386.648 325.463,386.615 325.327,386.724 324.984 C 386.891 324.459,386.526 324.219,386.247 324.670 M325.508 326.097 C 325.596 326.186,325.453 326.474,325.190 326.737 C 324.900 327.026,324.776 327.384,324.875 327.642 C 324.994 327.952,324.948 328.012,324.704 327.861 C 324.476 327.720,324.429 327.751,324.557 327.958 C 324.797 328.346,325.458 327.854,325.458 327.287 C 325.458 327.076,325.645 326.767,325.872 326.600 C 326.252 326.323,326.247 326.282,325.817 326.117 C 325.559 326.018,325.419 326.009,325.508 326.097 M360.935 326.406 C 361.038 326.585,360.983 326.721,360.809 326.721 C 360.641 326.721,360.817 326.992,361.202 327.323 C 361.710 327.759,361.807 327.961,361.557 328.061 C 361.340 328.147,361.324 328.205,361.514 328.218 C 362.039 328.252,362.095 327.826,361.632 327.328 C 361.386 327.064,361.172 326.753,361.157 326.637 C 361.141 326.521,361.044 326.351,360.941 326.258 C 360.837 326.166,360.835 326.232,360.935 326.406 M387.584 327.430 C 387.875 327.633,387.875 327.692,387.584 327.808 C 387.314 327.915,387.311 327.949,387.570 327.965 C 387.752 327.976,387.831 328.099,387.745 328.238 C 387.659 328.377,387.717 328.490,387.874 328.490 C 388.293 328.490,388.063 327.410,387.618 327.291 C 387.310 327.207,387.304 327.233,387.584 327.430 M298.157 328.238 C 298.142 328.446,298.084 328.867,298.026 329.172 C 297.969 329.478,298.037 329.799,298.178 329.886 C 298.318 329.973,298.412 329.950,298.387 329.836 C 298.361 329.721,298.425 329.435,298.528 329.200 C 298.631 328.966,298.596 328.568,298.450 328.316 C 298.242 327.959,298.178 327.942,298.157 328.238 M324.367 328.645 C 324.489 328.962,324.443 329.023,324.198 328.872 C 323.976 328.734,323.924 328.762,324.044 328.957 C 324.143 329.117,324.116 329.248,323.984 329.248 C 323.609 329.248,323.456 329.887,323.736 330.282 C 323.944 330.573,323.966 330.564,323.862 330.233 C 323.791 330.010,323.951 329.642,324.217 329.414 C 324.751 328.957,324.830 328.601,324.450 328.366 C 324.302 328.274,324.268 328.387,324.367 328.645 M362.016 328.590 C 361.920 328.840,362.056 329.207,362.356 329.507 C 362.631 329.781,362.738 330.006,362.594 330.006 C 362.422 330.006,362.431 330.191,362.621 330.546 C 362.847 330.969,362.956 331.011,363.122 330.742 C 363.239 330.553,363.255 330.339,363.158 330.266 C 363.061 330.193,362.947 329.971,362.904 329.774 C 362.709 328.867,362.180 328.163,362.016 328.590 M388.244 329.802 C 388.488 330.805,388.712 331.249,388.911 331.125 C 389.036 331.048,389.004 330.741,388.840 330.433 C 388.677 330.129,388.572 329.826,388.605 329.760 C 388.639 329.694,388.554 329.602,388.416 329.556 C 388.277 329.510,388.200 329.621,388.244 329.802 M323.084 330.661 C 322.999 330.882,322.993 331.166,323.072 331.293 C 323.150 331.419,323.087 331.522,322.931 331.522 C 322.776 331.522,322.723 331.643,322.815 331.791 C 322.906 331.939,322.812 332.251,322.607 332.486 C 322.107 333.056,321.815 334.049,322.147 334.049 C 322.498 334.049,322.993 333.090,322.802 332.781 C 322.717 332.645,322.744 332.533,322.861 332.533 C 322.978 332.533,323.202 332.192,323.359 331.775 C 323.517 331.358,323.545 331.017,323.422 331.017 C 323.300 331.017,323.265 330.846,323.345 330.638 C 323.425 330.430,323.434 330.259,323.364 330.259 C 323.295 330.259,323.169 330.440,323.084 330.661 M297.314 331.704 C 297.355 331.873,297.279 332.079,297.146 332.161 C 296.857 332.340,296.821 333.039,297.102 333.039 C 297.210 333.039,297.428 332.697,297.586 332.279 C 297.744 331.861,297.778 331.577,297.663 331.649 C 297.548 331.720,297.405 331.692,297.347 331.587 C 297.288 331.482,297.273 331.535,297.314 331.704 M363.108 331.515 C 363.108 331.642,363.224 331.817,363.365 331.904 C 363.506 331.991,363.556 332.169,363.476 332.298 C 363.396 332.427,363.522 332.533,363.756 332.533 C 364.083 332.533,364.116 332.455,363.899 332.194 C 363.744 332.008,363.679 331.794,363.753 331.720 C 363.827 331.646,363.712 331.518,363.498 331.435 C 363.283 331.353,363.108 331.389,363.108 331.515 M364.045 333.450 C 363.957 333.537,364.047 333.994,364.244 334.465 C 364.637 335.404,364.624 335.351,364.624 336.071 C 364.624 336.385,364.791 336.575,365.066 336.572 C 365.324 336.570,365.399 336.491,365.247 336.383 C 365.104 336.281,364.995 336.027,365.006 335.818 C 365.016 335.610,364.877 335.070,364.695 334.619 C 364.514 334.168,364.376 333.732,364.390 333.650 C 364.429 333.405,364.214 333.280,364.045 333.450 M389.275 333.522 C 389.181 333.673,389.215 333.797,389.350 333.797 C 389.485 333.797,389.565 334.078,389.527 334.421 C 389.489 334.765,389.546 334.992,389.654 334.925 C 389.761 334.859,389.908 334.947,389.980 335.122 C 390.052 335.296,390.047 335.041,389.968 334.555 C 389.805 333.543,389.522 333.122,389.275 333.522 M322.020 334.472 C 321.867 334.527,321.790 334.881,321.851 335.258 C 321.940 335.820,321.906 335.876,321.664 335.565 C 321.408 335.239,321.387 335.246,321.507 335.620 C 321.583 335.859,321.552 336.112,321.438 336.183 C 321.257 336.295,321.242 336.881,321.398 337.713 C 321.424 337.852,321.659 337.173,321.920 336.203 C 322.434 334.298,322.432 334.323,322.020 334.472 M296.472 335.060 C 296.545 335.338,296.501 335.629,296.376 335.706 C 296.250 335.784,296.147 336.016,296.147 336.222 C 296.147 336.529,296.210 336.538,296.500 336.270 C 296.695 336.091,296.816 335.904,296.769 335.855 C 296.722 335.806,296.788 335.494,296.914 335.160 C 297.098 334.678,297.063 334.555,296.743 334.555 C 296.465 334.555,296.381 334.711,296.472 335.060 M389.808 335.927 C 389.724 336.145,389.759 336.323,389.885 336.323 C 390.011 336.323,390.113 336.522,390.111 336.766 C 390.108 337.424,390.273 338.052,390.507 338.274 C 390.771 338.524,390.426 336.017,390.158 335.738 C 390.049 335.624,389.891 335.710,389.808 335.927 M296.012 337.094 C 295.772 337.483,296.101 337.733,296.425 337.409 C 296.607 337.228,296.611 337.086,296.439 336.980 C 296.297 336.892,296.105 336.944,296.012 337.094 M364.945 337.353 C 364.924 337.626,365.013 337.786,365.141 337.706 C 365.275 337.623,365.313 337.872,365.229 338.290 C 365.125 338.810,365.183 339.019,365.430 339.019 C 365.673 339.019,365.747 338.770,365.679 338.185 C 365.565 337.207,365.004 336.571,364.945 337.353 M321.035 338.566 C 321.159 338.977,321.128 339.112,320.937 338.993 C 320.783 338.898,320.657 338.934,320.657 339.073 C 320.657 339.212,320.763 339.391,320.891 339.471 C 321.260 339.698,321.505 338.585,321.159 338.256 C 320.922 338.031,320.894 338.101,321.035 338.566 M390.302 338.850 C 390.458 339.059,390.554 339.428,390.514 339.672 C 390.475 339.915,390.546 340.114,390.673 340.114 C 391.074 340.114,390.922 339.179,390.461 338.818 C 390.077 338.517,390.056 338.521,390.302 338.850 M295.711 339.356 C 295.732 339.634,295.850 339.861,295.975 339.861 C 296.099 339.861,296.138 339.698,296.061 339.498 C 295.985 339.299,296.058 339.080,296.224 339.013 C 296.393 338.944,296.338 338.881,296.099 338.870 C 295.823 338.857,295.686 339.028,295.711 339.356 M365.509 340.114 C 365.583 340.600,365.660 341.140,365.681 341.314 C 365.702 341.488,365.806 341.630,365.912 341.630 C 366.166 341.630,366.029 340.659,365.664 339.861 C 365.394 339.272,365.384 339.290,365.509 340.114 M320.566 340.240 C 320.482 340.457,320.561 340.619,320.749 340.619 C 320.930 340.619,321.078 340.449,321.078 340.240 C 321.078 340.032,320.996 339.861,320.895 339.861 C 320.794 339.861,320.646 340.032,320.566 340.240 M295.552 340.666 C 295.274 341.704,295.370 343.398,295.666 342.659 C 295.800 342.322,295.881 341.867,295.845 341.648 C 295.809 341.430,295.875 341.099,295.992 340.913 C 296.111 340.722,296.096 340.467,295.956 340.328 C 295.795 340.166,295.654 340.284,295.552 340.666 M390.542 341.043 C 390.450 341.283,390.548 341.635,390.768 341.855 C 391.117 342.204,391.156 342.200,391.156 341.810 C 391.156 341.572,391.046 341.377,390.911 341.377 C 390.777 341.377,390.732 341.207,390.812 340.998 C 390.892 340.790,390.901 340.619,390.831 340.619 C 390.762 340.619,390.632 340.810,390.542 341.043 M320.505 341.503 C 320.551 341.920,320.492 342.385,320.374 342.535 C 320.241 342.705,320.302 342.809,320.535 342.809 C 320.950 342.809,321.005 342.049,320.648 341.251 C 320.463 340.837,320.437 340.883,320.505 341.503 M295.480 344.030 C 295.560 344.239,295.515 344.409,295.381 344.409 C 295.246 344.409,295.136 344.978,295.136 345.673 C 295.136 346.368,295.252 346.936,295.393 346.936 C 295.546 346.936,295.608 346.477,295.546 345.815 C 295.489 345.198,295.509 344.626,295.591 344.544 C 295.856 344.279,295.857 343.651,295.592 343.651 C 295.450 343.651,295.400 343.822,295.480 344.030 M320.284 346.052 C 320.298 346.955,320.207 347.694,320.082 347.694 C 319.846 347.694,320.065 349.453,320.413 350.347 C 320.554 350.711,320.607 350.551,320.603 349.779 C 320.600 349.188,320.507 348.705,320.397 348.705 C 320.165 348.705,320.208 348.208,320.476 347.779 C 320.702 347.417,320.656 344.409,320.424 344.409 C 320.333 344.409,320.270 345.148,320.284 346.052 M390.815 345.167 C 390.895 345.515,390.978 346.559,390.999 347.488 C 391.055 349.900,391.377 349.911,391.382 347.501 C 391.385 346.148,391.269 345.330,391.028 345.011 C 390.692 344.565,390.679 344.575,390.815 345.167 M366.056 345.083 C 365.795 345.344,365.857 346.178,366.137 346.178 C 366.275 346.178,366.364 345.894,366.335 345.546 C 366.276 344.837,366.286 344.853,366.056 345.083 M365.888 347.315 C 365.888 347.524,366.001 347.694,366.140 347.694 C 366.279 347.694,366.393 347.524,366.393 347.315 C 366.393 347.107,366.279 346.936,366.140 346.936 C 366.001 346.936,365.888 347.107,365.888 347.315 M295.199 349.084 C 295.192 350.126,295.266 350.979,295.363 350.979 C 295.461 350.979,295.540 350.126,295.540 349.084 C 295.540 348.042,295.466 347.189,295.376 347.189 C 295.285 347.189,295.206 348.042,295.199 349.084 M365.931 349.712 C 365.956 350.359,366.049 350.625,366.178 350.421 C 366.466 349.967,366.444 349.019,366.142 348.832 C 365.988 348.737,365.906 349.081,365.931 349.712 M391.008 350.284 C 391.028 350.597,390.927 350.947,390.784 351.062 C 390.623 351.191,390.661 351.233,390.884 351.173 C 391.276 351.067,391.569 349.716,391.199 349.716 C 391.074 349.716,390.989 349.972,391.008 350.284 M365.987 351.351 C 366.078 351.974,366.393 352.110,366.393 351.527 C 366.393 351.226,366.289 350.979,366.163 350.979 C 366.036 350.979,365.957 351.146,365.987 351.351 M295.205 351.737 C 295.184 352.015,295.286 352.243,295.431 352.243 C 295.578 352.243,295.621 352.438,295.527 352.685 C 295.416 352.976,295.443 353.041,295.607 352.874 C 295.867 352.609,295.705 351.232,295.413 351.232 C 295.320 351.232,295.226 351.459,295.205 351.737 M365.847 352.685 C 365.703 354.233,365.708 355.022,365.862 355.022 C 365.960 355.022,366.050 354.766,366.063 354.454 C 366.076 354.141,366.141 353.515,366.207 353.064 C 366.273 352.612,366.228 352.243,366.107 352.243 C 365.986 352.243,365.869 352.442,365.847 352.685 M320.549 354.180 C 320.460 354.412,320.505 354.719,320.649 354.862 C 320.828 355.042,320.910 354.910,320.910 354.441 C 320.910 353.661,320.783 353.570,320.549 354.180 M390.903 354.369 C 390.903 354.566,390.761 354.785,390.587 354.855 C 390.399 354.931,390.450 354.990,390.714 355.002 C 390.994 355.015,391.156 354.837,391.156 354.517 C 391.156 354.239,391.099 354.011,391.030 354.011 C 390.960 354.011,390.903 354.172,390.903 354.369 M295.505 355.464 C 295.600 355.846,295.799 356.273,295.949 356.412 C 296.140 356.590,296.162 356.515,296.021 356.159 C 295.911 355.881,295.813 355.455,295.803 355.212 C 295.794 354.968,295.684 354.769,295.560 354.769 C 295.435 354.769,295.411 355.082,295.505 355.464 M390.553 356.110 C 390.584 356.552,390.479 356.993,390.321 357.091 C 390.163 357.189,390.108 357.343,390.199 357.434 C 390.290 357.525,390.486 357.525,390.634 357.433 C 390.947 357.240,391.001 355.617,390.700 355.432 C 390.589 355.363,390.523 355.668,390.553 356.110 M365.382 356.454 C 365.382 357.195,365.427 357.185,365.862 356.349 C 366.107 355.878,366.092 355.780,365.770 355.780 C 365.518 355.780,365.382 356.017,365.382 356.454 M295.725 357.163 C 295.725 357.363,295.877 357.585,296.062 357.656 C 296.248 357.728,296.399 357.690,296.399 357.572 C 296.399 357.454,296.248 357.232,296.062 357.079 C 295.808 356.868,295.725 356.888,295.725 357.163 M320.820 357.707 C 320.979 357.773,321.052 358.041,320.983 358.305 C 320.915 358.568,321.035 359.137,321.250 359.569 C 321.466 360.001,321.579 360.519,321.501 360.720 C 321.424 360.922,321.500 361.087,321.670 361.087 C 321.852 361.087,321.926 361.289,321.850 361.580 C 321.779 361.851,321.814 362.107,321.928 362.148 C 322.042 362.190,322.172 362.394,322.217 362.603 C 322.262 362.811,322.413 363.065,322.552 363.167 C 322.706 363.280,322.674 363.354,322.471 363.357 C 322.214 363.360,322.224 363.448,322.516 363.740 C 322.976 364.200,323.290 364.239,323.013 363.803 C 322.903 363.629,322.801 363.430,322.786 363.361 C 322.585 362.409,322.028 360.834,321.892 360.834 C 321.795 360.834,321.775 360.606,321.847 360.328 C 321.920 360.051,321.863 359.823,321.721 359.823 C 321.579 359.823,321.526 359.578,321.605 359.278 C 321.709 358.882,321.660 358.787,321.428 358.931 C 321.184 359.081,321.149 358.941,321.282 358.339 C 321.427 357.675,321.381 357.552,320.993 357.569 C 320.739 357.580,320.661 357.642,320.820 357.707 M390.406 358.054 C 390.369 358.263,390.359 358.587,390.385 358.775 C 390.411 358.962,390.316 359.044,390.175 358.957 C 390.025 358.864,389.959 359.008,390.017 359.306 C 390.070 359.584,390.008 359.878,389.877 359.959 C 389.504 360.190,389.601 360.580,389.994 360.429 C 390.189 360.355,390.319 360.102,390.283 359.869 C 390.246 359.635,390.324 359.375,390.454 359.290 C 390.584 359.206,390.642 358.808,390.582 358.406 C 390.523 358.004,390.443 357.846,390.406 358.054 M295.957 358.706 C 295.957 359.288,295.996 359.326,296.204 358.953 C 296.366 358.665,296.366 358.425,296.204 358.264 C 296.043 358.102,295.957 358.256,295.957 358.706 M365.166 358.790 C 364.986 358.901,364.865 359.151,364.898 359.345 C 364.931 359.538,364.826 360.017,364.665 360.408 C 364.301 361.289,364.302 361.339,364.666 361.339 C 364.828 361.339,364.885 361.263,364.792 361.170 C 364.699 361.077,364.798 360.732,365.013 360.405 C 365.228 360.077,365.327 359.686,365.234 359.535 C 365.141 359.384,365.218 359.166,365.406 359.051 C 365.593 358.935,365.690 358.783,365.620 358.714 C 365.551 358.644,365.346 358.678,365.166 358.790 M296.300 359.465 C 296.109 359.962,296.098 360.714,296.284 360.528 C 296.457 360.355,296.698 359.065,296.558 359.065 C 296.500 359.065,296.384 359.245,296.300 359.465 M296.526 361.859 C 296.629 362.337,296.797 362.761,296.899 362.801 C 297.000 362.841,297.030 363.153,296.965 363.496 C 296.872 363.979,296.952 364.118,297.317 364.115 C 297.605 364.113,297.680 364.038,297.509 363.925 C 297.355 363.823,297.259 363.541,297.297 363.299 C 297.334 363.056,297.266 362.796,297.146 362.722 C 297.025 362.647,296.990 362.422,297.067 362.222 C 297.143 362.022,297.011 361.662,296.772 361.423 C 296.361 361.012,296.348 361.036,296.526 361.859 M363.768 362.958 C 363.684 363.293,363.553 363.729,363.477 363.927 C 363.398 364.134,363.490 364.287,363.694 364.287 C 363.923 364.287,364.003 364.110,363.920 363.792 C 363.840 363.488,363.954 363.205,364.213 363.061 C 364.445 362.931,364.569 362.718,364.488 362.587 C 364.232 362.173,363.926 362.330,363.768 362.958 M389.239 363.298 C 389.337 363.471,389.303 363.613,389.164 363.613 C 389.025 363.613,388.959 363.863,389.018 364.168 C 389.076 364.473,388.956 364.908,388.749 365.136 C 388.438 365.480,388.434 365.551,388.727 365.551 C 389.239 365.551,389.776 363.641,389.370 363.266 C 389.137 363.052,389.105 363.060,389.239 363.298 M297.157 364.576 C 297.157 364.712,297.337 364.892,297.557 364.976 C 297.804 365.071,297.919 365.014,297.858 364.830 C 297.732 364.452,297.157 364.244,297.157 364.576 M322.834 364.921 C 322.949 365.105,323.065 365.396,323.090 365.567 C 323.116 365.738,323.320 366.059,323.542 366.282 C 323.765 366.504,323.882 366.791,323.803 366.919 C 323.724 367.046,323.787 367.151,323.942 367.151 C 324.097 367.151,324.144 367.293,324.046 367.467 C 323.917 367.695,323.949 367.708,324.161 367.514 C 324.509 367.195,324.040 365.544,323.667 365.775 C 323.544 365.851,323.499 365.766,323.569 365.584 C 323.638 365.403,323.455 365.105,323.160 364.921 C 322.717 364.644,322.661 364.644,322.834 364.921 M362.870 365.417 C 362.585 365.884,362.351 366.466,362.351 366.709 C 362.350 366.952,362.217 367.151,362.055 367.151 C 361.893 367.151,361.828 367.218,361.910 367.300 C 361.992 367.383,362.267 367.329,362.521 367.182 C 362.774 367.034,362.879 366.910,362.753 366.906 C 362.627 366.902,362.731 366.670,362.983 366.391 C 363.235 366.113,363.368 365.810,363.277 365.720 C 363.187 365.629,363.241 365.400,363.399 365.210 C 363.556 365.020,363.618 364.798,363.537 364.716 C 363.455 364.634,363.155 364.950,362.870 365.417 M297.410 365.464 C 297.410 366.068,298.276 367.890,298.439 367.627 C 298.553 367.442,298.525 367.151,298.375 366.970 C 298.227 366.792,298.200 366.646,298.314 366.646 C 298.428 366.646,298.394 366.518,298.238 366.362 C 298.082 366.206,298.015 365.922,298.088 365.730 C 298.168 365.524,298.057 365.382,297.816 365.382 C 297.593 365.382,297.410 365.419,297.410 365.464 M387.957 367.580 C 388.001 368.464,388.223 368.390,388.491 367.404 C 388.608 366.973,388.586 366.881,388.424 367.116 C 388.222 367.407,388.164 367.407,388.051 367.116 C 387.977 366.927,387.935 367.135,387.957 367.580 M324.499 368.099 C 324.540 368.342,324.634 368.598,324.707 368.667 C 324.780 368.737,324.983 369.078,325.157 369.425 C 325.360 369.829,325.425 369.875,325.339 369.551 C 325.208 369.059,325.214 369.059,325.576 369.526 C 325.780 369.789,325.876 370.119,325.790 370.259 C 325.701 370.404,325.759 370.436,325.923 370.334 C 326.133 370.204,326.092 369.939,325.773 369.379 C 325.530 368.953,325.219 368.391,325.082 368.130 C 324.768 367.533,324.401 367.513,324.499 368.099 M361.592 367.927 C 361.592 368.076,361.420 368.369,361.211 368.579 C 361.001 368.789,360.890 369.059,360.965 369.180 C 361.040 369.301,360.870 369.523,360.588 369.674 C 360.306 369.825,360.076 370.116,360.076 370.321 C 360.076 370.625,360.164 370.638,360.565 370.387 C 360.834 370.219,360.997 369.990,360.928 369.878 C 360.859 369.766,360.979 369.606,361.195 369.523 C 361.412 369.440,361.526 369.270,361.449 369.146 C 361.372 369.022,361.417 368.920,361.548 368.920 C 361.679 368.920,361.840 368.636,361.906 368.288 C 361.973 367.941,361.929 367.656,361.810 367.656 C 361.690 367.656,361.592 367.778,361.592 367.927 M298.546 368.164 C 298.348 368.484,298.632 369.425,298.927 369.425 C 299.048 369.425,299.130 369.198,299.109 368.920 C 299.088 368.642,298.975 368.414,298.857 368.414 C 298.740 368.414,298.714 368.301,298.800 368.162 C 298.886 368.023,298.899 367.909,298.830 367.909 C 298.760 367.909,298.632 368.024,298.546 368.164 M298.926 369.850 C 298.926 369.898,299.036 370.135,299.170 370.376 C 299.304 370.617,299.668 371.431,299.977 372.183 C 300.287 372.936,300.585 373.419,300.639 373.256 C 300.694 373.093,300.870 373.035,301.032 373.128 C 301.194 373.221,301.059 373.003,300.732 372.643 C 300.380 372.257,300.215 371.862,300.328 371.679 C 300.460 371.466,300.415 371.433,300.186 371.575 C 299.943 371.726,299.895 371.667,300.012 371.362 C 300.101 371.130,300.057 370.941,299.914 370.941 C 299.771 370.941,299.720 370.835,299.800 370.706 C 299.880 370.577,299.828 370.398,299.684 370.310 C 299.541 370.221,299.477 370.061,299.543 369.955 C 299.608 369.849,299.496 369.762,299.294 369.762 C 299.092 369.762,298.926 369.802,298.926 369.850 M387.038 370.098 C 387.145 370.379,387.102 370.459,386.906 370.338 C 386.722 370.224,386.664 370.288,386.748 370.509 C 386.823 370.702,386.709 371.005,386.496 371.182 C 386.282 371.359,386.170 371.605,386.246 371.728 C 386.323 371.851,386.277 371.952,386.144 371.952 C 386.012 371.952,385.838 372.123,385.758 372.331 C 385.383 373.308,386.390 372.579,386.849 371.541 C 387.414 370.263,387.499 369.678,387.121 369.678 C 386.986 369.678,386.949 369.867,387.038 370.098 M326.315 370.836 C 326.400 371.055,326.469 371.290,326.469 371.356 C 326.469 371.422,326.577 371.409,326.710 371.327 C 327.004 371.146,326.768 370.436,326.415 370.436 C 326.276 370.436,326.231 370.616,326.315 370.836 M359.429 371.289 C 359.338 371.652,359.191 371.904,359.101 371.849 C 358.832 371.685,355.905 374.688,356.122 374.905 C 356.233 375.016,356.436 374.906,356.573 374.661 C 356.710 374.416,356.948 374.293,357.102 374.389 C 357.285 374.502,357.324 374.411,357.216 374.128 C 357.123 373.887,357.153 373.759,357.283 373.839 C 357.411 373.918,357.803 373.697,358.153 373.347 C 358.503 372.996,358.652 372.699,358.485 372.685 C 358.318 372.671,358.458 372.582,358.796 372.488 C 359.350 372.333,360.013 371.047,359.701 370.735 C 359.643 370.676,359.521 370.926,359.429 371.289 M326.974 371.699 C 326.974 371.838,327.059 371.924,327.164 371.889 C 327.268 371.854,327.353 371.900,327.353 371.991 C 327.353 372.082,327.694 372.472,328.111 372.859 C 328.528 373.245,328.832 373.621,328.787 373.694 C 328.742 373.767,328.893 373.893,329.122 373.973 C 329.351 374.054,329.530 374.200,329.520 374.299 C 329.509 374.398,329.566 374.471,329.646 374.462 C 329.726 374.453,329.996 374.681,330.245 374.968 C 330.494 375.255,330.887 375.490,331.118 375.490 C 331.349 375.490,331.604 375.660,331.684 375.869 C 331.764 376.077,331.988 376.248,332.181 376.248 C 332.375 376.248,332.533 376.380,332.533 376.542 C 332.533 376.705,332.608 376.762,332.699 376.671 C 332.791 376.580,332.990 376.603,333.142 376.722 C 333.293 376.842,333.844 377.077,334.365 377.245 C 334.886 377.413,335.313 377.646,335.313 377.763 C 335.313 377.880,335.625 378.044,336.008 378.127 C 336.390 378.210,336.987 378.342,337.334 378.420 C 338.618 378.708,339.256 378.799,340.366 378.849 C 340.992 378.878,341.597 379.015,341.712 379.154 C 341.837 379.304,341.879 379.254,341.818 379.028 C 341.755 378.796,341.381 378.637,340.851 378.616 C 340.376 378.597,339.137 378.354,338.098 378.076 C 337.058 377.799,336.045 377.634,335.845 377.710 C 335.588 377.809,335.543 377.746,335.691 377.491 C 335.805 377.293,335.809 377.213,335.699 377.313 C 335.589 377.412,335.258 377.359,334.964 377.196 C 334.669 377.032,334.343 376.922,334.239 376.952 C 334.135 376.982,334.049 376.896,334.049 376.761 C 334.049 376.626,333.860 376.589,333.629 376.678 C 333.316 376.798,333.261 376.747,333.417 376.480 C 333.531 376.283,333.536 376.202,333.427 376.300 C 333.318 376.398,332.863 376.199,332.415 375.858 C 331.967 375.516,331.470 375.237,331.309 375.237 C 331.148 375.237,331.017 375.123,331.017 374.984 C 331.017 374.845,330.902 374.732,330.762 374.732 C 330.622 374.732,329.783 373.992,328.897 373.089 C 327.290 371.450,326.974 371.222,326.974 371.699 M300.987 373.697 C 300.722 373.860,300.739 373.937,301.069 374.063 C 301.298 374.151,301.419 374.329,301.338 374.460 C 301.258 374.590,301.300 374.763,301.431 374.845 C 301.828 375.090,301.934 374.635,301.617 374.045 C 301.420 373.676,301.209 373.560,300.987 373.697 M385.121 373.721 C 385.149 373.929,385.082 374.304,384.974 374.553 C 384.676 375.237,384.929 375.289,385.249 374.609 C 385.421 374.246,385.440 373.888,385.299 373.680 C 385.115 373.408,385.080 373.416,385.121 373.721 M355.148 375.148 C 354.870 375.358,353.989 375.864,353.190 376.272 C 351.763 377.000,351.366 377.427,352.116 377.427 C 352.325 377.427,352.495 377.325,352.495 377.201 C 352.495 377.077,352.609 377.046,352.748 377.132 C 352.887 377.218,353.001 377.161,353.001 377.006 C 353.001 376.850,353.114 376.793,353.253 376.879 C 353.392 376.965,353.506 376.915,353.506 376.768 C 353.506 376.621,353.591 376.514,353.696 376.530 C 354.226 376.614,354.517 376.460,354.517 376.094 C 354.517 375.866,354.660 375.743,354.843 375.813 C 355.301 375.989,356.195 375.297,355.893 375.000 C 355.745 374.855,355.461 374.912,355.148 375.148 M384.262 375.058 C 384.175 375.286,384.219 375.545,384.361 375.633 C 384.726 375.859,384.804 375.694,384.599 375.129 C 384.443 374.701,384.403 374.692,384.262 375.058 M301.824 375.250 C 301.584 375.638,301.913 375.889,302.237 375.564 C 302.419 375.383,302.423 375.242,302.250 375.135 C 302.109 375.048,301.917 375.099,301.824 375.250 M302.276 375.909 C 302.048 376.001,302.033 376.168,302.222 376.521 C 302.492 377.025,303.222 377.195,303.222 376.753 C 303.222 376.614,303.080 376.529,302.906 376.563 C 302.732 376.598,302.606 376.428,302.625 376.184 C 302.644 375.941,302.644 375.751,302.625 375.762 C 302.606 375.773,302.449 375.839,302.276 375.909 M383.382 376.627 C 383.573 376.987,383.119 378.077,382.848 377.909 C 382.724 377.832,382.467 377.960,382.278 378.194 C 382.041 378.486,382.032 378.560,382.249 378.429 C 382.423 378.325,382.565 378.346,382.565 378.476 C 382.565 378.838,381.911 379.300,381.699 379.088 C 381.596 378.985,381.535 379.015,381.563 379.154 C 381.691 379.789,381.542 380.410,381.338 380.089 C 381.175 379.831,381.054 379.855,380.774 380.201 C 380.463 380.583,380.466 380.615,380.796 380.447 C 381.133 380.275,381.133 380.290,380.796 380.589 C 380.587 380.773,380.380 381.094,380.334 381.302 C 380.287 381.516,380.589 381.359,381.029 380.938 C 381.457 380.530,381.807 380.056,381.807 379.885 C 381.807 379.714,381.897 379.537,382.006 379.490 C 382.643 379.222,383.904 376.981,383.584 376.685 C 383.400 376.514,383.309 376.488,383.382 376.627 M302.977 377.448 C 302.982 377.552,303.144 377.848,303.339 378.105 C 303.816 378.734,304.330 378.418,303.914 377.752 C 303.616 377.275,302.961 377.062,302.977 377.448 M350.726 377.568 C 350.726 377.692,350.632 377.735,350.517 377.664 C 350.402 377.593,349.749 377.702,349.067 377.908 C 347.503 378.379,346.783 378.532,345.673 378.632 C 345.186 378.676,344.732 378.736,344.662 378.766 C 344.593 378.795,343.996 378.801,343.335 378.778 C 342.675 378.756,342.135 378.838,342.135 378.962 C 342.135 379.085,342.761 379.190,343.525 379.196 C 344.289 379.201,344.915 379.135,344.915 379.048 C 344.915 378.962,345.341 378.879,345.862 378.864 C 347.714 378.811,348.452 378.694,348.452 378.454 C 348.452 378.320,348.680 378.270,348.958 378.342 C 349.240 378.416,349.399 378.369,349.317 378.237 C 349.235 378.104,349.435 378.047,349.773 378.109 C 350.109 378.169,350.635 378.024,350.957 377.780 C 351.394 377.451,351.437 377.343,351.132 377.343 C 350.909 377.343,350.726 377.444,350.726 377.568 M304.171 378.834 C 304.053 379.133,304.163 379.360,304.516 379.549 C 304.801 379.702,304.966 379.894,304.884 379.976 C 304.713 380.147,305.725 381.301,306.045 381.301 C 306.160 381.301,306.254 381.188,306.254 381.049 C 306.254 380.910,306.087 380.796,305.883 380.796 C 305.666 380.796,305.569 380.647,305.650 380.436 C 305.729 380.230,305.562 379.956,305.256 379.792 C 304.963 379.635,304.801 379.382,304.896 379.228 C 304.996 379.067,304.954 379.020,304.796 379.118 C 304.646 379.210,304.483 379.086,304.434 378.841 C 304.349 378.421,304.334 378.420,304.171 378.834 M306.299 381.488 C 306.052 381.577,306.114 381.768,306.532 382.213 C 307.169 382.891,307.517 382.984,307.517 382.478 C 307.517 382.004,306.702 381.342,306.299 381.488 M379.322 381.889 C 379.018 382.212,378.847 382.553,378.941 382.647 C 379.035 382.741,378.998 382.817,378.859 382.817 C 378.720 382.817,378.606 382.992,378.606 383.205 C 378.606 383.467,378.883 383.325,379.459 382.766 C 379.928 382.312,380.192 381.900,380.047 381.852 C 379.901 381.803,379.846 381.660,379.925 381.532 C 380.184 381.114,379.883 381.291,379.322 381.889 M307.786 383.199 C 307.772 383.648,308.514 384.370,308.936 384.317 C 309.022 384.306,309.288 384.618,309.527 385.010 C 310.032 385.838,312.318 387.782,312.318 387.383 C 312.318 386.887,312.195 386.737,311.851 386.816 C 311.631 386.866,311.578 386.775,311.702 386.561 C 311.808 386.378,311.801 386.313,311.687 386.416 C 311.440 386.640,310.756 386.130,310.929 385.850 C 310.995 385.742,310.852 385.499,310.610 385.310 C 310.212 384.998,310.204 385.007,310.517 385.407 C 310.939 385.945,310.488 386.005,310.044 385.471 C 309.871 385.262,309.814 385.092,309.918 385.092 C 310.273 385.092,309.433 384.281,308.848 384.058 C 308.525 383.936,308.158 383.578,308.032 383.263 C 307.821 382.738,307.801 382.733,307.786 383.199 M377.635 384.338 C 377.548 384.479,377.377 384.533,377.257 384.459 C 377.136 384.384,376.583 384.752,376.027 385.276 C 375.472 385.800,374.818 386.351,374.574 386.499 C 374.330 386.648,374.082 386.933,374.023 387.131 C 373.964 387.330,374.099 387.265,374.324 386.987 C 374.730 386.484,374.732 386.484,374.555 386.985 C 374.397 387.435,374.459 387.421,375.149 386.858 C 375.588 386.500,375.864 386.075,375.788 385.871 C 375.711 385.661,375.767 385.583,375.926 385.680 C 376.074 385.772,376.633 385.452,377.169 384.970 C 377.705 384.487,378.064 384.090,377.968 384.087 C 377.872 384.083,377.722 384.196,377.635 384.338 M312.708 387.601 C 312.628 387.731,312.820 388.017,313.134 388.237 C 313.773 388.684,314.076 388.340,313.575 387.736 C 313.221 387.311,312.917 387.263,312.708 387.601 M372.934 387.934 C 372.769 388.247,372.509 388.597,372.356 388.712 C 372.177 388.846,372.213 388.884,372.457 388.818 C 372.666 388.762,372.977 388.440,373.149 388.104 C 373.320 387.767,373.462 387.641,373.464 387.823 C 373.466 388.005,373.584 388.082,373.725 387.995 C 374.010 387.819,373.821 387.366,373.462 387.366 C 373.336 387.366,373.098 387.622,372.934 387.934 M314.116 388.409 C 314.074 389.006,314.742 389.515,314.929 389.028 C 315.023 388.784,314.953 388.701,314.728 388.787 C 314.533 388.862,314.333 388.720,314.265 388.458 C 314.170 388.090,314.140 388.080,314.116 388.409 M315.718 389.369 C 315.796 389.494,315.722 389.642,315.554 389.698 C 315.357 389.764,315.393 389.855,315.658 389.957 C 315.892 390.046,316.123 389.967,316.198 389.771 C 316.270 389.583,316.160 389.364,315.953 389.285 C 315.746 389.205,315.641 389.243,315.718 389.369 M370.192 389.631 C 369.909 389.914,369.621 390.145,369.551 390.145 C 369.482 390.145,369.305 390.145,369.158 390.145 C 369.010 390.145,368.972 390.278,369.073 390.441 C 369.194 390.638,369.119 390.684,368.848 390.580 C 368.564 390.471,368.482 390.533,368.578 390.784 C 368.698 391.094,368.808 391.094,369.387 390.779 C 370.573 390.133,371.282 389.472,370.985 389.288 C 370.832 389.193,370.475 389.348,370.192 389.631 M316.782 390.255 C 316.707 390.450,316.815 390.674,317.022 390.753 C 317.254 390.842,317.333 390.792,317.227 390.621 C 317.111 390.432,317.248 390.403,317.656 390.529 C 318.338 390.739,318.259 390.599,317.461 390.184 C 317.034 389.963,316.888 389.978,316.782 390.255 M367.750 391.025 C 367.664 391.248,367.665 391.501,367.751 391.588 C 367.838 391.675,367.911 391.528,367.913 391.261 C 367.916 390.856,367.957 390.839,368.162 391.156 C 368.309 391.384,368.408 391.415,368.411 391.234 C 368.417 390.743,367.918 390.585,367.750 391.025 M318.130 391.098 C 318.130 391.503,318.944 391.709,319.246 391.380 C 319.447 391.161,319.433 391.131,319.193 391.267 C 319.013 391.369,318.700 391.315,318.498 391.147 C 318.281 390.967,318.130 390.947,318.130 391.098 M319.811 392.100 C 320.060 392.282,320.409 392.375,320.587 392.307 C 320.764 392.238,320.910 392.281,320.910 392.400 C 320.910 392.520,321.052 392.675,321.226 392.745 C 323.613 393.702,324.195 393.907,324.195 393.792 C 324.195 393.718,323.854 393.538,323.437 393.392 C 323.020 393.247,322.742 393.026,322.820 392.900 C 322.967 392.662,322.624 392.580,321.830 392.664 C 321.569 392.691,321.430 392.600,321.517 392.458 C 321.688 392.183,320.889 391.848,319.945 391.800 C 319.402 391.772,319.392 391.794,319.811 392.100 M365.379 392.054 C 365.033 392.245,364.864 392.407,365.003 392.414 C 365.142 392.421,365.085 392.537,364.877 392.672 C 364.384 392.991,364.047 392.992,364.243 392.675 C 364.334 392.528,364.225 392.492,363.978 392.586 C 363.618 392.724,363.611 392.777,363.930 392.956 C 364.326 393.177,366.393 392.495,366.393 392.143 C 366.393 391.748,365.995 391.712,365.379 392.054 M362.182 393.600 C 362.182 393.974,362.260 393.985,362.975 393.705 C 363.430 393.527,363.418 393.500,362.827 393.387 C 362.397 393.305,362.182 393.376,362.182 393.600 M325.092 393.928 C 324.638 394.090,324.647 394.116,325.208 394.262 C 325.909 394.445,326.003 394.405,325.760 394.026 C 325.663 393.874,325.365 393.830,325.092 393.928 M360.747 394.073 C 360.813 394.245,361.087 394.328,361.356 394.257 C 361.995 394.090,361.972 394.019,361.236 393.878 C 360.824 393.799,360.666 393.862,360.747 394.073 M326.216 394.161 C 326.216 394.441,326.993 394.759,327.192 394.559 C 327.273 394.479,327.171 394.308,326.967 394.178 C 326.494 393.880,326.216 393.873,326.216 394.161 M359.463 394.332 C 359.215 394.580,358.854 394.670,358.497 394.572 C 358.016 394.441,357.995 394.459,358.361 394.689 C 358.880 395.015,360.144 394.756,359.906 394.371 C 359.801 394.201,359.900 394.164,360.174 394.269 C 360.431 394.368,360.545 394.334,360.453 394.185 C 360.233 393.829,359.919 393.876,359.463 394.332 M327.479 394.718 C 327.479 394.925,328.549 395.225,328.711 395.063 C 328.775 394.999,328.688 394.946,328.517 394.946 C 328.347 394.946,328.274 394.839,328.354 394.709 C 328.435 394.578,328.271 394.489,327.990 394.510 C 327.709 394.531,327.479 394.625,327.479 394.718 M356.940 394.983 C 357.063 395.182,356.913 395.233,356.457 395.146 C 356.055 395.069,355.856 395.118,355.951 395.270 C 356.050 395.431,355.765 395.458,355.160 395.344 C 354.551 395.230,354.270 395.257,354.371 395.420 C 354.566 395.735,356.712 395.579,357.147 395.218 C 357.324 395.071,357.562 395.035,357.676 395.138 C 357.790 395.241,357.801 395.183,357.701 395.009 C 357.601 394.836,357.349 394.694,357.140 394.694 C 356.920 394.694,356.836 394.815,356.940 394.983 M330.263 395.196 C 330.029 395.341,330.094 395.445,330.497 395.573 C 331.173 395.788,331.328 395.679,330.903 395.287 C 330.729 395.127,330.441 395.086,330.263 395.196 M332.786 395.709 C 332.786 395.997,334.430 396.312,334.932 396.119 C 335.141 396.039,335.313 396.083,335.313 396.218 C 335.313 396.352,335.625 396.447,336.008 396.428 C 336.603 396.398,336.621 396.378,336.134 396.284 C 335.821 396.224,335.565 396.056,335.565 395.911 C 335.565 395.747,335.232 395.711,334.681 395.814 C 334.195 395.905,333.797 395.885,333.797 395.770 C 333.797 395.654,333.569 395.542,333.291 395.521 C 333.013 395.500,332.786 395.585,332.786 395.709 M353.253 395.704 C 353.253 395.843,353.509 395.955,353.822 395.953 C 354.282 395.950,354.318 395.902,354.011 395.704 C 353.521 395.388,353.253 395.388,353.253 395.704 M350.979 395.894 C 350.979 395.998,351.281 396.101,351.650 396.122 C 352.129 396.150,352.219 396.097,351.965 395.937 C 351.530 395.661,350.979 395.637,350.979 395.894 M336.935 396.242 C 336.875 396.339,337.114 396.387,337.465 396.348 C 337.817 396.309,338.165 396.376,338.240 396.496 C 338.314 396.617,338.490 396.715,338.631 396.715 C 338.771 396.715,338.736 396.568,338.552 396.387 C 338.199 396.041,337.120 395.943,336.935 396.242 M339.467 396.486 C 339.390 396.612,339.617 396.715,339.972 396.715 C 340.747 396.715,340.809 396.571,340.114 396.389 C 339.836 396.317,339.545 396.360,339.467 396.486 M341.630 396.399 C 341.630 396.503,342.369 396.589,343.272 396.589 C 344.176 396.589,344.915 396.503,344.915 396.399 C 344.915 396.295,344.176 396.210,343.272 396.210 C 342.369 396.210,341.630 396.295,341.630 396.399 " stroke="none" fill="#24e42a" fill-rule="evenodd"></path></g></svg>